<?xml version="1.0" encoding="UTF-8" standalone="no"?>
<!DOCTYPE svg PUBLIC "-//W3C//DTD SVG 1.1//EN"
"http://www.w3.org/Graphics/SVG/1.1/DTD/svg11.dtd">
<svg viewBox="0 0 909 1286" version="1.1" xmlns="http://www.w3.org/2000/svg" xmlns:xlink="http://www.w3.org/1999/xlink">
<defs>
<clipPath id="c0_1"><path d="M0,1298.2V0H910.6V1298.2Z"/></clipPath>
<clipPath id="c1_1"><path d="M0,1287.9V0H910.6V1287.9Z"/></clipPath>
<clipPath id="c2_1"><path d="M62.2,663.9v-414H847.7v414Z"/></clipPath>
<style type="text/css"><![CDATA[
.g0_1{
fill: #FFFFFF;
}
.g1_1{
fill: #F1F1F0;
}
.g2_1{
fill: #474747;
}
.g3_1{
fill: #B8AA76;
}
]]></style>
</defs>
<g clip-path="url(#c0_1)">
<path d="M0,0H910.6V6480.5H0V0Z" class="g0_1"/>
<path d="M0,0H910.6V1287.9H0V0Z" class="g0_1"/>
</g>
<path clip-path="url(#c1_1)" d="M0,0H910.6V1287.9H0V0Z" class="g1_1"/>
<image clip-path="url(#c2_1)" preserveAspectRatio="none" x="62" y="221" width="786" height="472" xlink:href="img/1.jpg"/>
<path d="M68.4,231.3H848.1v-1.5H62.2v1.5h6.2Z" class="g2_1"/>
<path d="M848.1,74.6H62.4V71.9H848.1v2.7Zm0,-8.1H62.4V58.3H848.1v8.2Z" class="g3_1"/>
<path d="M62.2,677.2H847.8v2.7H62.2v-2.7Zm0,8.1H847.8v8.2H62.2v-8.2Z" class="g3_1"/>
<path d="M105.1,762.2c-1.3,0,-2.5,.1,-3.7,.4c-1.3,.2,-2.5,.6,-3.6,1.1c-1.2,.4,-2.3,1,-3.3,1.7c-1,.7,-2,1.5,-2.9,2.4c-.9,.9,-1.7,1.8,-2.4,2.9c-.7,1,-1.2,2.1,-1.7,3.3c-.5,1.1,-.9,2.3,-1.1,3.5c-.2,1.2,-.4,2.5,-.4,3.7c0,1.3,.2,2.5,.4,3.7c.2,1.3,.6,2.5,1.1,3.6c.5,1.2,1,2.3,1.7,3.3c.7,1,1.5,2,2.4,2.9c.9,.9,1.9,1.7,2.9,2.4c1,.6,2.1,1.2,3.3,1.7c1.1,.5,2.3,.9,3.6,1.1c1.2,.2,2.4,.4,3.7,.4c1.2,0,2.4,-.2,3.7,-.4c1.2,-.2,2.4,-.6,3.5,-1.1c1.2,-.5,2.3,-1.1,3.3,-1.7c1.1,-.7,2,-1.5,2.9,-2.4c.9,-.9,1.7,-1.9,2.4,-2.9c.7,-1,1.3,-2.1,1.7,-3.3c.5,-1.1,.9,-2.3,1.1,-3.6c.3,-1.2,.4,-2.4,.4,-3.7c0,-1.2,-.1,-2.5,-.4,-3.7c-.2,-1.2,-.6,-2.4,-1.1,-3.5c-.4,-1.2,-1,-2.3,-1.7,-3.3c-.7,-1.1,-1.5,-2,-2.4,-2.9c-.9,-.9,-1.8,-1.7,-2.9,-2.4c-1,-.7,-2.1,-1.3,-3.3,-1.7c-1.1,-.5,-2.3,-.9,-3.5,-1.1c-1.3,-.3,-2.5,-.4,-3.7,-.4Z" class="g1_1"/>
<path d="M137.6,762.2c-1.2,0,-2.5,.1,-3.7,.4c-1.2,.2,-2.4,.6,-3.6,1.1c-1.1,.4,-2.2,1,-3.2,1.7c-1.1,.7,-2,1.5,-2.9,2.4c-.9,.9,-1.7,1.8,-2.4,2.9c-.7,1,-1.3,2.1,-1.8,3.3c-.4,1.1,-.8,2.3,-1,3.5c-.3,1.2,-.4,2.5,-.4,3.7c0,1.3,.1,2.5,.4,3.7c.2,1.3,.6,2.5,1,3.6c.5,1.2,1.1,2.3,1.8,3.3c.7,1,1.5,2,2.4,2.9c.9,.9,1.8,1.7,2.9,2.4c1,.6,2.1,1.2,3.2,1.7c1.2,.5,2.4,.9,3.6,1.1c1.2,.2,2.5,.4,3.7,.4c1.3,0,2.5,-.2,3.7,-.4c1.3,-.2,2.5,-.6,3.6,-1.1c1.2,-.5,2.3,-1.1,3.3,-1.7c1,-.7,2,-1.5,2.9,-2.4c.9,-.9,1.7,-1.9,2.3,-2.9c.7,-1,1.3,-2.1,1.8,-3.3c.5,-1.1,.8,-2.3,1.1,-3.6c.2,-1.2,.4,-2.4,.4,-3.7c0,-1.2,-.2,-2.5,-.4,-3.7c-.3,-1.2,-.6,-2.4,-1.1,-3.5c-.5,-1.2,-1.1,-2.3,-1.8,-3.3c-.6,-1.1,-1.4,-2,-2.3,-2.9c-.9,-.9,-1.9,-1.7,-2.9,-2.4c-1,-.7,-2.1,-1.3,-3.3,-1.7c-1.1,-.5,-2.3,-.9,-3.6,-1.1c-1.2,-.3,-2.4,-.4,-3.7,-.4Z" class="g1_1"/>
<path d="M170.2,762.2c-1.3,0,-2.5,.1,-3.7,.4c-1.3,.2,-2.4,.6,-3.6,1.1c-1.1,.4,-2.2,1,-3.3,1.7c-1,.7,-2,1.5,-2.9,2.4c-.9,.9,-1.6,1.8,-2.3,2.9c-.7,1,-1.3,2.1,-1.8,3.3c-.5,1.1,-.8,2.3,-1.1,3.5c-.2,1.2,-.3,2.5,-.3,3.7c0,1.3,.1,2.5,.3,3.7c.3,1.3,.6,2.5,1.1,3.6c.5,1.2,1.1,2.3,1.8,3.3c.7,1,1.4,2,2.3,2.9c.9,.9,1.9,1.7,2.9,2.4c1.1,.6,2.2,1.2,3.3,1.7c1.2,.5,2.3,.9,3.6,1.1c1.2,.2,2.4,.4,3.7,.4c1.2,0,2.5,-.2,3.7,-.4c1.2,-.2,2.4,-.6,3.6,-1.1c1.1,-.5,2.2,-1.1,3.3,-1.7c1,-.7,2,-1.5,2.8,-2.4c.9,-.9,1.7,-1.9,2.4,-2.9c.7,-1,1.3,-2.1,1.8,-3.3c.4,-1.1,.8,-2.3,1,-3.6c.3,-1.2,.4,-2.4,.4,-3.7c0,-1.2,-.1,-2.5,-.4,-3.7c-.2,-1.2,-.6,-2.4,-1,-3.5c-.5,-1.2,-1.1,-2.3,-1.8,-3.3c-.7,-1.1,-1.5,-2,-2.4,-2.9c-.8,-.9,-1.8,-1.7,-2.8,-2.4c-1.1,-.7,-2.2,-1.3,-3.3,-1.7c-1.2,-.5,-2.4,-.9,-3.6,-1.1c-1.2,-.3,-2.5,-.4,-3.7,-.4Z" class="g1_1"/>
<path d="M202.7,762.2c-1.2,0,-2.4,.1,-3.7,.4c-1.2,.2,-2.4,.6,-3.5,1.1c-1.2,.4,-2.3,1,-3.3,1.7c-1.1,.7,-2,1.5,-2.9,2.4c-.9,.9,-1.7,1.8,-2.4,2.9c-.7,1,-1.3,2.1,-1.7,3.3c-.5,1.1,-.9,2.3,-1.1,3.5c-.3,1.2,-.4,2.5,-.4,3.7c0,1.3,.1,2.5,.4,3.7c.2,1.3,.6,2.5,1.1,3.6c.4,1.2,1,2.3,1.7,3.3c.7,1,1.5,2,2.4,2.9c.9,.9,1.8,1.7,2.9,2.4c1,.6,2.1,1.2,3.3,1.7c1.1,.5,2.3,.9,3.5,1.1c1.3,.2,2.5,.4,3.7,.4c1.3,0,2.5,-.2,3.8,-.4c1.2,-.2,2.4,-.6,3.5,-1.1c1.2,-.5,2.3,-1.1,3.3,-1.7c1.1,-.7,2,-1.5,2.9,-2.4c.9,-.9,1.7,-1.9,2.4,-2.9c.7,-1,1.3,-2.1,1.7,-3.3c.5,-1.1,.9,-2.3,1.1,-3.6c.3,-1.2,.4,-2.4,.4,-3.7c0,-1.2,-.1,-2.5,-.4,-3.7c-.2,-1.2,-.6,-2.4,-1.1,-3.5c-.4,-1.2,-1,-2.3,-1.7,-3.3c-.7,-1.1,-1.5,-2,-2.4,-2.9c-.9,-.9,-1.8,-1.7,-2.9,-2.4c-1,-.7,-2.1,-1.3,-3.3,-1.7c-1.1,-.5,-2.3,-.9,-3.5,-1.1c-1.3,-.3,-2.5,-.4,-3.8,-.4Z" class="g1_1"/>
</svg>