<?xml version="1.0" encoding="UTF-8"?>
<svg xmlns="http://www.w3.org/2000/svg" xmlns:xlink="http://www.w3.org/1999/xlink" width="1224pt" height="1584pt" viewBox="0 0 1224 1584" version="1.2">
<defs>
<clipPath id="clip1">
  <path d="M 0 0 L 1224 0 L 1224 1583.582031 L 0 1583.582031 Z "/>
</clipPath>
</defs>
<g id="surface1">
<g clip-path="url(#clip1)" clip-rule="nonzero">
<path style=" stroke:none;fill-rule:nonzero;fill:rgb(100%,100%,100%);fill-opacity:1;" d="M 0 0 L 1224 0 L 1224 1583.582031 L 0 1583.582031 Z "/>
</g>
<path style="fill-rule:nonzero;fill:rgb(99.21875%,100%,54.899597%);fill-opacity:1;stroke-width:1;stroke-linecap:butt;stroke-linejoin:miter;stroke:rgb(0%,0%,0%);stroke-opacity:1;stroke-miterlimit:4;" d="M 539.999809 74.999951 L 570.000868 74.999951 L 570.000868 105.00101 L 539.999809 105.00101 Z " transform="matrix(1.810223,0,0,1.810223,-2.57063,-5.430668)"/>
<path style="fill-rule:nonzero;fill:rgb(99.21875%,100%,54.899597%);fill-opacity:1;stroke-width:1;stroke-linecap:butt;stroke-linejoin:miter;stroke:rgb(0%,0%,0%);stroke-opacity:1;stroke-miterlimit:4;" d="M 575.000685 74.999951 L 604.999586 74.999951 L 604.999586 105.00101 L 575.000685 105.00101 Z " transform="matrix(1.810223,0,0,1.810223,-2.57063,-5.430668)"/>
<path style="fill-rule:nonzero;fill:rgb(99.21875%,100%,54.899597%);fill-opacity:1;stroke-width:1;stroke-linecap:butt;stroke-linejoin:miter;stroke:rgb(0%,0%,0%);stroke-opacity:1;stroke-miterlimit:4;" d="M 575.000685 144.999544 L 604.999586 144.999544 L 604.999586 175.000603 L 575.000685 175.000603 Z " transform="matrix(1.810223,0,0,1.810223,-2.57063,-5.430668)"/>
<path style="fill-rule:nonzero;fill:rgb(99.21875%,100%,54.899597%);fill-opacity:1;stroke-width:1;stroke-linecap:butt;stroke-linejoin:miter;stroke:rgb(0%,0%,0%);stroke-opacity:1;stroke-miterlimit:4;" d="M 504.998934 74.999951 L 534.999993 74.999951 L 534.999993 105.00101 L 504.998934 105.00101 Z " transform="matrix(1.810223,0,0,1.810223,-2.57063,-5.430668)"/>
<path style="fill-rule:nonzero;fill:rgb(99.21875%,100%,54.899597%);fill-opacity:1;stroke-width:1;stroke-linecap:butt;stroke-linejoin:miter;stroke:rgb(0%,0%,0%);stroke-opacity:1;stroke-miterlimit:4;" d="M 539.999809 110.000827 L 570.000868 110.000827 L 570.000868 139.999728 L 539.999809 139.999728 Z " transform="matrix(1.810223,0,0,1.810223,-2.57063,-5.430668)"/>
<path style="fill-rule:nonzero;fill:rgb(99.21875%,100%,54.899597%);fill-opacity:1;stroke-width:1;stroke-linecap:butt;stroke-linejoin:miter;stroke:rgb(0%,0%,0%);stroke-opacity:1;stroke-miterlimit:4;" d="M 575.000685 110.000827 L 604.999586 110.000827 L 604.999586 139.999728 L 575.000685 139.999728 Z " transform="matrix(1.810223,0,0,1.810223,-2.57063,-5.430668)"/>
<path style="fill-rule:nonzero;fill:rgb(99.21875%,100%,54.899597%);fill-opacity:1;stroke-width:1;stroke-linecap:butt;stroke-linejoin:miter;stroke:rgb(0%,0%,0%);stroke-opacity:1;stroke-miterlimit:4;" d="M 645.000278 144.999544 L 674.999178 144.999544 L 674.999178 175.000603 L 645.000278 175.000603 Z " transform="matrix(1.810223,0,0,1.810223,-2.57063,-5.430668)"/>
<path style="fill-rule:nonzero;fill:rgb(99.21875%,100%,54.899597%);fill-opacity:1;stroke-width:1;stroke-linecap:butt;stroke-linejoin:miter;stroke:rgb(0%,0%,0%);stroke-opacity:1;stroke-miterlimit:4;" d="M 645.000278 180.00042 L 674.999178 180.00042 L 674.999178 209.999321 L 645.000278 209.999321 Z " transform="matrix(1.810223,0,0,1.810223,-2.57063,-5.430668)"/>
<path style="fill-rule:nonzero;fill:rgb(99.21875%,100%,54.899597%);fill-opacity:1;stroke-width:1;stroke-linecap:butt;stroke-linejoin:miter;stroke:rgb(0%,0%,0%);stroke-opacity:1;stroke-miterlimit:4;" d="M 645.000278 214.999137 L 674.999178 214.999137 L 674.999178 245.000196 L 645.000278 245.000196 Z " transform="matrix(1.810223,0,0,1.810223,-2.57063,-5.430668)"/>
<path style="fill-rule:nonzero;fill:rgb(99.21875%,100%,54.899597%);fill-opacity:1;stroke-width:1;stroke-linecap:butt;stroke-linejoin:miter;stroke:rgb(0%,0%,0%);stroke-opacity:1;stroke-miterlimit:4;" d="M 645.000278 74.999951 L 674.999178 74.999951 L 674.999178 105.00101 L 645.000278 105.00101 Z " transform="matrix(1.810223,0,0,1.810223,-2.57063,-5.430668)"/>
<path style="fill-rule:nonzero;fill:rgb(99.21875%,100%,54.899597%);fill-opacity:1;stroke-width:1;stroke-linecap:butt;stroke-linejoin:miter;stroke:rgb(0%,0%,0%);stroke-opacity:1;stroke-miterlimit:4;" d="M 645.000278 110.000827 L 674.999178 110.000827 L 674.999178 139.999728 L 645.000278 139.999728 Z " transform="matrix(1.810223,0,0,1.810223,-2.57063,-5.430668)"/>
<path style="fill-rule:nonzero;fill:rgb(99.21875%,100%,54.899597%);fill-opacity:1;stroke-width:1;stroke-linecap:butt;stroke-linejoin:miter;stroke:rgb(0%,0%,0%);stroke-opacity:1;stroke-miterlimit:4;" d="M 645.000278 250.000013 L 674.999178 250.000013 L 674.999178 280.001071 L 645.000278 280.001071 Z " transform="matrix(1.810223,0,0,1.810223,-2.57063,-5.430668)"/>
<path style="fill-rule:nonzero;fill:rgb(99.21875%,100%,54.899597%);fill-opacity:1;stroke-width:1;stroke-linecap:butt;stroke-linejoin:miter;stroke:rgb(0%,0%,0%);stroke-opacity:1;stroke-miterlimit:4;" d="M 504.998934 144.999544 L 534.999993 144.999544 L 534.999993 175.000603 L 504.998934 175.000603 Z " transform="matrix(1.810223,0,0,1.810223,-2.57063,-5.430668)"/>
<path style="fill-rule:nonzero;fill:rgb(99.21875%,100%,54.899597%);fill-opacity:1;stroke-width:1;stroke-linecap:butt;stroke-linejoin:miter;stroke:rgb(0%,0%,0%);stroke-opacity:1;stroke-miterlimit:4;" d="M 539.999809 144.999544 L 570.000868 144.999544 L 570.000868 175.000603 L 539.999809 175.000603 Z " transform="matrix(1.810223,0,0,1.810223,-2.57063,-5.430668)"/>
<path style="fill-rule:nonzero;fill:rgb(99.21875%,100%,54.899597%);fill-opacity:1;stroke-width:1;stroke-linecap:butt;stroke-linejoin:miter;stroke:rgb(0%,0%,0%);stroke-opacity:1;stroke-miterlimit:4;" d="M 539.999809 180.00042 L 570.000868 180.00042 L 570.000868 209.999321 L 539.999809 209.999321 Z " transform="matrix(1.810223,0,0,1.810223,-2.57063,-5.430668)"/>
<path style="fill-rule:nonzero;fill:rgb(99.21875%,100%,54.899597%);fill-opacity:1;stroke-width:1;stroke-linecap:butt;stroke-linejoin:miter;stroke:rgb(0%,0%,0%);stroke-opacity:1;stroke-miterlimit:4;" d="M 575.000685 180.00042 L 604.999586 180.00042 L 604.999586 209.999321 L 575.000685 209.999321 Z " transform="matrix(1.810223,0,0,1.810223,-2.57063,-5.430668)"/>
<path style="fill-rule:nonzero;fill:rgb(99.21875%,100%,54.899597%);fill-opacity:1;stroke-width:1;stroke-linecap:butt;stroke-linejoin:miter;stroke:rgb(0%,0%,0%);stroke-opacity:1;stroke-miterlimit:4;" d="M 470.000216 74.999951 L 499.999117 74.999951 L 499.999117 105.00101 L 470.000216 105.00101 Z " transform="matrix(1.810223,0,0,1.810223,-2.57063,-5.430668)"/>
<path style="fill-rule:nonzero;fill:rgb(99.21875%,100%,54.899597%);fill-opacity:1;stroke-width:1;stroke-linecap:butt;stroke-linejoin:miter;stroke:rgb(0%,0%,0%);stroke-opacity:1;stroke-miterlimit:4;" d="M 504.998934 110.000827 L 534.999993 110.000827 L 534.999993 139.999728 L 504.998934 139.999728 Z " transform="matrix(1.810223,0,0,1.810223,-2.57063,-5.430668)"/>
<path style="fill-rule:nonzero;fill:rgb(99.21875%,100%,54.899597%);fill-opacity:1;stroke-width:1;stroke-linecap:butt;stroke-linejoin:miter;stroke:rgb(0%,0%,0%);stroke-opacity:1;stroke-miterlimit:4;" d="M 470.000216 144.999544 L 499.999117 144.999544 L 499.999117 175.000603 L 470.000216 175.000603 Z " transform="matrix(1.810223,0,0,1.810223,-2.57063,-5.430668)"/>
<path style="fill-rule:nonzero;fill:rgb(99.21875%,100%,54.899597%);fill-opacity:1;stroke-width:1;stroke-linecap:butt;stroke-linejoin:miter;stroke:rgb(0%,0%,0%);stroke-opacity:1;stroke-miterlimit:4;" d="M 470.000216 180.00042 L 499.999117 180.00042 L 499.999117 209.999321 L 470.000216 209.999321 Z " transform="matrix(1.810223,0,0,1.810223,-2.57063,-5.430668)"/>
<path style="fill-rule:nonzero;fill:rgb(99.21875%,100%,54.899597%);fill-opacity:1;stroke-width:1;stroke-linecap:butt;stroke-linejoin:miter;stroke:rgb(0%,0%,0%);stroke-opacity:1;stroke-miterlimit:4;" d="M 470.000216 214.999137 L 499.999117 214.999137 L 499.999117 245.000196 L 470.000216 245.000196 Z " transform="matrix(1.810223,0,0,1.810223,-2.57063,-5.430668)"/>
<path style="fill-rule:nonzero;fill:rgb(99.21875%,100%,54.899597%);fill-opacity:1;stroke-width:1;stroke-linecap:butt;stroke-linejoin:miter;stroke:rgb(0%,0%,0%);stroke-opacity:1;stroke-miterlimit:4;" d="M 504.998934 180.00042 L 534.999993 180.00042 L 534.999993 209.999321 L 504.998934 209.999321 Z " transform="matrix(1.810223,0,0,1.810223,-2.57063,-5.430668)"/>
<path style="fill-rule:nonzero;fill:rgb(99.21875%,100%,54.899597%);fill-opacity:1;stroke-width:1;stroke-linecap:butt;stroke-linejoin:miter;stroke:rgb(0%,0%,0%);stroke-opacity:1;stroke-miterlimit:4;" d="M 504.998934 214.999137 L 534.999993 214.999137 L 534.999993 245.000196 L 504.998934 245.000196 Z " transform="matrix(1.810223,0,0,1.810223,-2.57063,-5.430668)"/>
<path style="fill-rule:nonzero;fill:rgb(99.21875%,100%,54.899597%);fill-opacity:1;stroke-width:1;stroke-linecap:butt;stroke-linejoin:miter;stroke:rgb(0%,0%,0%);stroke-opacity:1;stroke-miterlimit:4;" d="M 539.999809 214.999137 L 570.000868 214.999137 L 570.000868 245.000196 L 539.999809 245.000196 Z " transform="matrix(1.810223,0,0,1.810223,-2.57063,-5.430668)"/>
<path style="fill-rule:nonzero;fill:rgb(99.21875%,100%,54.899597%);fill-opacity:1;stroke-width:1;stroke-linecap:butt;stroke-linejoin:miter;stroke:rgb(0%,0%,0%);stroke-opacity:1;stroke-miterlimit:4;" d="M 575.000685 214.999137 L 604.999586 214.999137 L 604.999586 245.000196 L 575.000685 245.000196 Z " transform="matrix(1.810223,0,0,1.810223,-2.57063,-5.430668)"/>
<path style="fill-rule:nonzero;fill:rgb(99.21875%,100%,54.899597%);fill-opacity:1;stroke-width:1;stroke-linecap:butt;stroke-linejoin:miter;stroke:rgb(0%,0%,0%);stroke-opacity:1;stroke-miterlimit:4;" d="M 470.000216 110.000827 L 499.999117 110.000827 L 499.999117 139.999728 L 470.000216 139.999728 Z " transform="matrix(1.810223,0,0,1.810223,-2.57063,-5.430668)"/>
<path style="fill-rule:nonzero;fill:rgb(99.21875%,100%,54.899597%);fill-opacity:1;stroke-width:1;stroke-linecap:butt;stroke-linejoin:miter;stroke:rgb(0%,0%,0%);stroke-opacity:1;stroke-miterlimit:4;" d="M 470.000216 250.000013 L 499.999117 250.000013 L 499.999117 280.001071 L 470.000216 280.001071 Z " transform="matrix(1.810223,0,0,1.810223,-2.57063,-5.430668)"/>
<path style="fill-rule:nonzero;fill:rgb(99.21875%,100%,54.899597%);fill-opacity:1;stroke-width:1;stroke-linecap:butt;stroke-linejoin:miter;stroke:rgb(0%,0%,0%);stroke-opacity:1;stroke-miterlimit:4;" d="M 504.998934 250.000013 L 534.999993 250.000013 L 534.999993 280.001071 L 504.998934 280.001071 Z " transform="matrix(1.810223,0,0,1.810223,-2.57063,-5.430668)"/>
<path style="fill-rule:nonzero;fill:rgb(99.21875%,100%,54.899597%);fill-opacity:1;stroke-width:1;stroke-linecap:butt;stroke-linejoin:miter;stroke:rgb(0%,0%,0%);stroke-opacity:1;stroke-miterlimit:4;" d="M 539.999809 250.000013 L 570.000868 250.000013 L 570.000868 280.001071 L 539.999809 280.001071 Z " transform="matrix(1.810223,0,0,1.810223,-2.57063,-5.430668)"/>
<path style="fill-rule:nonzero;fill:rgb(99.21875%,100%,54.899597%);fill-opacity:1;stroke-width:1;stroke-linecap:butt;stroke-linejoin:miter;stroke:rgb(0%,0%,0%);stroke-opacity:1;stroke-miterlimit:4;" d="M 575.000685 250.000013 L 604.999586 250.000013 L 604.999586 280.001071 L 575.000685 280.001071 Z " transform="matrix(1.810223,0,0,1.810223,-2.57063,-5.430668)"/>
<path style="fill-rule:nonzero;fill:rgb(99.21875%,100%,54.899597%);fill-opacity:1;stroke-width:1;stroke-linecap:butt;stroke-linejoin:miter;stroke:rgb(0%,0%,0%);stroke-opacity:1;stroke-miterlimit:4;" d="M 609.999402 74.999951 L 640.000461 74.999951 L 640.000461 105.00101 L 609.999402 105.00101 Z " transform="matrix(1.810223,0,0,1.810223,-2.57063,-5.430668)"/>
<path style="fill-rule:nonzero;fill:rgb(99.21875%,100%,54.899597%);fill-opacity:1;stroke-width:1;stroke-linecap:butt;stroke-linejoin:miter;stroke:rgb(0%,0%,0%);stroke-opacity:1;stroke-miterlimit:4;" d="M 609.999402 110.000827 L 640.000461 110.000827 L 640.000461 139.999728 L 609.999402 139.999728 Z " transform="matrix(1.810223,0,0,1.810223,-2.57063,-5.430668)"/>
<path style="fill-rule:nonzero;fill:rgb(99.21875%,100%,54.899597%);fill-opacity:1;stroke-width:1;stroke-linecap:butt;stroke-linejoin:miter;stroke:rgb(0%,0%,0%);stroke-opacity:1;stroke-miterlimit:4;" d="M 609.999402 144.999544 L 640.000461 144.999544 L 640.000461 175.000603 L 609.999402 175.000603 Z " transform="matrix(1.810223,0,0,1.810223,-2.57063,-5.430668)"/>
<path style="fill-rule:nonzero;fill:rgb(99.21875%,100%,54.899597%);fill-opacity:1;stroke-width:1;stroke-linecap:butt;stroke-linejoin:miter;stroke:rgb(0%,0%,0%);stroke-opacity:1;stroke-miterlimit:4;" d="M 609.999402 180.00042 L 640.000461 180.00042 L 640.000461 209.999321 L 609.999402 209.999321 Z " transform="matrix(1.810223,0,0,1.810223,-2.57063,-5.430668)"/>
<path style="fill-rule:nonzero;fill:rgb(99.21875%,100%,54.899597%);fill-opacity:1;stroke-width:1;stroke-linecap:butt;stroke-linejoin:miter;stroke:rgb(0%,0%,0%);stroke-opacity:1;stroke-miterlimit:4;" d="M 609.999402 214.999137 L 640.000461 214.999137 L 640.000461 245.000196 L 609.999402 245.000196 Z " transform="matrix(1.810223,0,0,1.810223,-2.57063,-5.430668)"/>
<path style="fill-rule:nonzero;fill:rgb(99.21875%,100%,54.899597%);fill-opacity:1;stroke-width:1;stroke-linecap:butt;stroke-linejoin:miter;stroke:rgb(0%,0%,0%);stroke-opacity:1;stroke-miterlimit:4;" d="M 609.999402 250.000013 L 640.000461 250.000013 L 640.000461 280.001071 L 609.999402 280.001071 Z " transform="matrix(1.810223,0,0,1.810223,-2.57063,-5.430668)"/>
<path style="fill-rule:nonzero;fill:rgb(60.778809%,100%,59.999084%);fill-opacity:1;stroke-width:1;stroke-linecap:butt;stroke-linejoin:miter;stroke:rgb(0%,0%,0%);stroke-opacity:1;stroke-miterlimit:4;" d="M 155.000969 329.999239 L 184.99987 329.999239 L 184.99987 360.000298 L 155.000969 360.000298 Z " transform="matrix(1.810223,0,0,1.810223,-2.57063,-5.430668)"/>
<path style="fill-rule:nonzero;fill:rgb(60.778809%,100%,59.999084%);fill-opacity:1;stroke-width:1;stroke-linecap:butt;stroke-linejoin:miter;stroke:rgb(0%,0%,0%);stroke-opacity:1;stroke-miterlimit:4;" d="M 189.999687 329.999239 L 220.000745 329.999239 L 220.000745 360.000298 L 189.999687 360.000298 Z " transform="matrix(1.810223,0,0,1.810223,-2.57063,-5.430668)"/>
<path style="fill-rule:nonzero;fill:rgb(60.778809%,100%,59.999084%);fill-opacity:1;stroke-width:1;stroke-linecap:butt;stroke-linejoin:miter;stroke:rgb(0%,0%,0%);stroke-opacity:1;stroke-miterlimit:4;" d="M 225.000562 329.999239 L 254.999463 329.999239 L 254.999463 360.000298 L 225.000562 360.000298 Z " transform="matrix(1.810223,0,0,1.810223,-2.57063,-5.430668)"/>
<path style="fill-rule:nonzero;fill:rgb(60.778809%,100%,59.999084%);fill-opacity:1;stroke-width:1;stroke-linecap:butt;stroke-linejoin:miter;stroke:rgb(0%,0%,0%);stroke-opacity:1;stroke-miterlimit:4;" d="M 259.99928 329.999239 L 290.000338 329.999239 L 290.000338 360.000298 L 259.99928 360.000298 Z " transform="matrix(1.810223,0,0,1.810223,-2.57063,-5.430668)"/>
<path style="fill-rule:nonzero;fill:rgb(60.778809%,100%,59.999084%);fill-opacity:1;stroke-width:1;stroke-linecap:butt;stroke-linejoin:miter;stroke:rgb(0%,0%,0%);stroke-opacity:1;stroke-miterlimit:4;" d="M 295.000155 329.999239 L 324.999056 329.999239 L 324.999056 360.000298 L 295.000155 360.000298 Z " transform="matrix(1.810223,0,0,1.810223,-2.57063,-5.430668)"/>
<path style="fill-rule:nonzero;fill:rgb(60.778809%,100%,59.999084%);fill-opacity:1;stroke-width:1;stroke-linecap:butt;stroke-linejoin:miter;stroke:rgb(0%,0%,0%);stroke-opacity:1;stroke-miterlimit:4;" d="M 330.001031 329.999239 L 359.999931 329.999239 L 359.999931 360.000298 L 330.001031 360.000298 Z " transform="matrix(1.810223,0,0,1.810223,-2.57063,-5.430668)"/>
<path style="fill-rule:nonzero;fill:rgb(60.778809%,100%,59.999084%);fill-opacity:1;stroke-width:1;stroke-linecap:butt;stroke-linejoin:miter;stroke:rgb(0%,0%,0%);stroke-opacity:1;stroke-miterlimit:4;" d="M 364.999748 329.999239 L 395.000807 329.999239 L 395.000807 360.000298 L 364.999748 360.000298 Z " transform="matrix(1.810223,0,0,1.810223,-2.57063,-5.430668)"/>
<path style="fill-rule:nonzero;fill:rgb(60.778809%,100%,59.999084%);fill-opacity:1;stroke-width:1;stroke-linecap:butt;stroke-linejoin:miter;stroke:rgb(0%,0%,0%);stroke-opacity:1;stroke-miterlimit:4;" d="M 400.000624 329.999239 L 429.999524 329.999239 L 429.999524 360.000298 L 400.000624 360.000298 Z " transform="matrix(1.810223,0,0,1.810223,-2.57063,-5.430668)"/>
<path style="fill-rule:nonzero;fill:rgb(60.778809%,100%,59.999084%);fill-opacity:1;stroke-width:1;stroke-linecap:butt;stroke-linejoin:miter;stroke:rgb(0%,0%,0%);stroke-opacity:1;stroke-miterlimit:4;" d="M 434.999341 329.999239 L 465.0004 329.999239 L 465.0004 360.000298 L 434.999341 360.000298 Z " transform="matrix(1.810223,0,0,1.810223,-2.57063,-5.430668)"/>
<path style="fill-rule:nonzero;fill:rgb(60.778809%,100%,59.999084%);fill-opacity:1;stroke-width:1;stroke-linecap:butt;stroke-linejoin:miter;stroke:rgb(0%,0%,0%);stroke-opacity:1;stroke-miterlimit:4;" d="M 470.000216 329.999239 L 499.999117 329.999239 L 499.999117 360.000298 L 470.000216 360.000298 Z " transform="matrix(1.810223,0,0,1.810223,-2.57063,-5.430668)"/>
<path style="fill-rule:nonzero;fill:rgb(60.778809%,100%,59.999084%);fill-opacity:1;stroke-width:1;stroke-linecap:butt;stroke-linejoin:miter;stroke:rgb(0%,0%,0%);stroke-opacity:1;stroke-miterlimit:4;" d="M 504.998934 329.999239 L 534.999993 329.999239 L 534.999993 360.000298 L 504.998934 360.000298 Z " transform="matrix(1.810223,0,0,1.810223,-2.57063,-5.430668)"/>
<path style="fill-rule:nonzero;fill:rgb(60.778809%,100%,59.999084%);fill-opacity:1;stroke-width:1;stroke-linecap:butt;stroke-linejoin:miter;stroke:rgb(0%,0%,0%);stroke-opacity:1;stroke-miterlimit:4;" d="M 539.999809 329.999239 L 570.000868 329.999239 L 570.000868 360.000298 L 539.999809 360.000298 Z " transform="matrix(1.810223,0,0,1.810223,-2.57063,-5.430668)"/>
<path style="fill-rule:nonzero;fill:rgb(60.778809%,100%,59.999084%);fill-opacity:1;stroke-width:1;stroke-linecap:butt;stroke-linejoin:miter;stroke:rgb(0%,0%,0%);stroke-opacity:1;stroke-miterlimit:4;" d="M 575.000685 329.999239 L 604.999586 329.999239 L 604.999586 360.000298 L 575.000685 360.000298 Z " transform="matrix(1.810223,0,0,1.810223,-2.57063,-5.430668)"/>
<path style="fill-rule:nonzero;fill:rgb(60.778809%,100%,59.999084%);fill-opacity:1;stroke-width:1;stroke-linecap:butt;stroke-linejoin:miter;stroke:rgb(0%,0%,0%);stroke-opacity:1;stroke-miterlimit:4;" d="M 120.000094 329.999239 L 149.998995 329.999239 L 149.998995 360.000298 L 120.000094 360.000298 Z " transform="matrix(1.810223,0,0,1.810223,-2.57063,-5.430668)"/>
<path style="fill-rule:nonzero;fill:rgb(60.778809%,100%,59.999084%);fill-opacity:1;stroke-width:1;stroke-linecap:butt;stroke-linejoin:miter;stroke:rgb(0%,0%,0%);stroke-opacity:1;stroke-miterlimit:4;" d="M 155.000969 295.000522 L 184.99987 295.000522 L 184.99987 324.999422 L 155.000969 324.999422 Z " transform="matrix(1.810223,0,0,1.810223,-2.57063,-5.430668)"/>
<path style="fill-rule:nonzero;fill:rgb(60.778809%,100%,59.999084%);fill-opacity:1;stroke-width:1;stroke-linecap:butt;stroke-linejoin:miter;stroke:rgb(0%,0%,0%);stroke-opacity:1;stroke-miterlimit:4;" d="M 189.999687 295.000522 L 220.000745 295.000522 L 220.000745 324.999422 L 189.999687 324.999422 Z " transform="matrix(1.810223,0,0,1.810223,-2.57063,-5.430668)"/>
<path style="fill-rule:nonzero;fill:rgb(60.778809%,100%,59.999084%);fill-opacity:1;stroke-width:1;stroke-linecap:butt;stroke-linejoin:miter;stroke:rgb(0%,0%,0%);stroke-opacity:1;stroke-miterlimit:4;" d="M 225.000562 295.000522 L 254.999463 295.000522 L 254.999463 324.999422 L 225.000562 324.999422 Z " transform="matrix(1.810223,0,0,1.810223,-2.57063,-5.430668)"/>
<path style="fill-rule:nonzero;fill:rgb(60.778809%,100%,59.999084%);fill-opacity:1;stroke-width:1;stroke-linecap:butt;stroke-linejoin:miter;stroke:rgb(0%,0%,0%);stroke-opacity:1;stroke-miterlimit:4;" d="M 259.99928 295.000522 L 290.000338 295.000522 L 290.000338 324.999422 L 259.99928 324.999422 Z " transform="matrix(1.810223,0,0,1.810223,-2.57063,-5.430668)"/>
<path style="fill-rule:nonzero;fill:rgb(60.778809%,100%,59.999084%);fill-opacity:1;stroke-width:1;stroke-linecap:butt;stroke-linejoin:miter;stroke:rgb(0%,0%,0%);stroke-opacity:1;stroke-miterlimit:4;" d="M 295.000155 295.000522 L 324.999056 295.000522 L 324.999056 324.999422 L 295.000155 324.999422 Z " transform="matrix(1.810223,0,0,1.810223,-2.57063,-5.430668)"/>
<path style="fill-rule:nonzero;fill:rgb(60.778809%,100%,59.999084%);fill-opacity:1;stroke-width:1;stroke-linecap:butt;stroke-linejoin:miter;stroke:rgb(0%,0%,0%);stroke-opacity:1;stroke-miterlimit:4;" d="M 330.001031 295.000522 L 359.999931 295.000522 L 359.999931 324.999422 L 330.001031 324.999422 Z " transform="matrix(1.810223,0,0,1.810223,-2.57063,-5.430668)"/>
<path style="fill-rule:nonzero;fill:rgb(60.778809%,100%,59.999084%);fill-opacity:1;stroke-width:1;stroke-linecap:butt;stroke-linejoin:miter;stroke:rgb(0%,0%,0%);stroke-opacity:1;stroke-miterlimit:4;" d="M 364.999748 295.000522 L 395.000807 295.000522 L 395.000807 324.999422 L 364.999748 324.999422 Z " transform="matrix(1.810223,0,0,1.810223,-2.57063,-5.430668)"/>
<path style="fill-rule:nonzero;fill:rgb(60.778809%,100%,59.999084%);fill-opacity:1;stroke-width:1;stroke-linecap:butt;stroke-linejoin:miter;stroke:rgb(0%,0%,0%);stroke-opacity:1;stroke-miterlimit:4;" d="M 400.000624 295.000522 L 429.999524 295.000522 L 429.999524 324.999422 L 400.000624 324.999422 Z " transform="matrix(1.810223,0,0,1.810223,-2.57063,-5.430668)"/>
<path style="fill-rule:nonzero;fill:rgb(60.778809%,100%,59.999084%);fill-opacity:1;stroke-width:1;stroke-linecap:butt;stroke-linejoin:miter;stroke:rgb(0%,0%,0%);stroke-opacity:1;stroke-miterlimit:4;" d="M 434.999341 295.000522 L 465.0004 295.000522 L 465.0004 324.999422 L 434.999341 324.999422 Z " transform="matrix(1.810223,0,0,1.810223,-2.57063,-5.430668)"/>
<path style="fill-rule:nonzero;fill:rgb(60.778809%,100%,59.999084%);fill-opacity:1;stroke-width:1;stroke-linecap:butt;stroke-linejoin:miter;stroke:rgb(0%,0%,0%);stroke-opacity:1;stroke-miterlimit:4;" d="M 470.000216 295.000522 L 499.999117 295.000522 L 499.999117 324.999422 L 470.000216 324.999422 Z " transform="matrix(1.810223,0,0,1.810223,-2.57063,-5.430668)"/>
<path style="fill-rule:nonzero;fill:rgb(60.778809%,100%,59.999084%);fill-opacity:1;stroke-width:1;stroke-linecap:butt;stroke-linejoin:miter;stroke:rgb(0%,0%,0%);stroke-opacity:1;stroke-miterlimit:4;" d="M 504.998934 295.000522 L 534.999993 295.000522 L 534.999993 324.999422 L 504.998934 324.999422 Z " transform="matrix(1.810223,0,0,1.810223,-2.57063,-5.430668)"/>
<path style="fill-rule:nonzero;fill:rgb(60.778809%,100%,59.999084%);fill-opacity:1;stroke-width:1;stroke-linecap:butt;stroke-linejoin:miter;stroke:rgb(0%,0%,0%);stroke-opacity:1;stroke-miterlimit:4;" d="M 539.999809 295.000522 L 570.000868 295.000522 L 570.000868 324.999422 L 539.999809 324.999422 Z " transform="matrix(1.810223,0,0,1.810223,-2.57063,-5.430668)"/>
<path style="fill-rule:nonzero;fill:rgb(60.778809%,100%,59.999084%);fill-opacity:1;stroke-width:1;stroke-linecap:butt;stroke-linejoin:miter;stroke:rgb(0%,0%,0%);stroke-opacity:1;stroke-miterlimit:4;" d="M 575.000685 295.000522 L 604.999586 295.000522 L 604.999586 324.999422 L 575.000685 324.999422 Z " transform="matrix(1.810223,0,0,1.810223,-2.57063,-5.430668)"/>
<path style="fill-rule:nonzero;fill:rgb(60.778809%,100%,59.999084%);fill-opacity:1;stroke-width:1;stroke-linecap:butt;stroke-linejoin:miter;stroke:rgb(0%,0%,0%);stroke-opacity:1;stroke-miterlimit:4;" d="M 120.000094 295.000522 L 149.998995 295.000522 L 149.998995 324.999422 L 120.000094 324.999422 Z " transform="matrix(1.810223,0,0,1.810223,-2.57063,-5.430668)"/>
<path style="fill-rule:nonzero;fill:rgb(59.999084%,79.998779%,100%);fill-opacity:1;stroke-width:1;stroke-linecap:butt;stroke-linejoin:miter;stroke:rgb(0%,0%,0%);stroke-opacity:1;stroke-miterlimit:4;" d="M 434.999341 144.999544 L 465.0004 144.999544 L 465.0004 175.000603 L 434.999341 175.000603 Z " transform="matrix(1.810223,0,0,1.810223,-2.57063,-5.430668)"/>
<path style="fill-rule:nonzero;fill:rgb(59.999084%,79.998779%,100%);fill-opacity:1;stroke-width:1;stroke-linecap:butt;stroke-linejoin:miter;stroke:rgb(0%,0%,0%);stroke-opacity:1;stroke-miterlimit:4;" d="M 434.999341 180.00042 L 465.0004 180.00042 L 465.0004 209.999321 L 434.999341 209.999321 Z " transform="matrix(1.810223,0,0,1.810223,-2.57063,-5.430668)"/>
<path style="fill-rule:nonzero;fill:rgb(59.999084%,79.998779%,100%);fill-opacity:1;stroke-width:1;stroke-linecap:butt;stroke-linejoin:miter;stroke:rgb(0%,0%,0%);stroke-opacity:1;stroke-miterlimit:4;" d="M 434.999341 214.999137 L 465.0004 214.999137 L 465.0004 245.000196 L 434.999341 245.000196 Z " transform="matrix(1.810223,0,0,1.810223,-2.57063,-5.430668)"/>
<path style="fill-rule:nonzero;fill:rgb(59.999084%,79.998779%,100%);fill-opacity:1;stroke-width:1;stroke-linecap:butt;stroke-linejoin:miter;stroke:rgb(0%,0%,0%);stroke-opacity:1;stroke-miterlimit:4;" d="M 434.999341 250.000013 L 465.0004 250.000013 L 465.0004 280.001071 L 434.999341 280.001071 Z " transform="matrix(1.810223,0,0,1.810223,-2.57063,-5.430668)"/>
<path style="fill-rule:nonzero;fill:rgb(59.999084%,79.998779%,100%);fill-opacity:1;stroke-width:1;stroke-linecap:butt;stroke-linejoin:miter;stroke:rgb(0%,0%,0%);stroke-opacity:1;stroke-miterlimit:4;" d="M 330.001031 250.000013 L 359.999931 250.000013 L 359.999931 280.001071 L 330.001031 280.001071 Z " transform="matrix(1.810223,0,0,1.810223,-2.57063,-5.430668)"/>
<path style="fill-rule:nonzero;fill:rgb(59.999084%,79.998779%,100%);fill-opacity:1;stroke-width:1;stroke-linecap:butt;stroke-linejoin:miter;stroke:rgb(0%,0%,0%);stroke-opacity:1;stroke-miterlimit:4;" d="M 364.999748 250.000013 L 395.000807 250.000013 L 395.000807 280.001071 L 364.999748 280.001071 Z " transform="matrix(1.810223,0,0,1.810223,-2.57063,-5.430668)"/>
<path style="fill-rule:nonzero;fill:rgb(59.999084%,79.998779%,100%);fill-opacity:1;stroke-width:1;stroke-linecap:butt;stroke-linejoin:miter;stroke:rgb(0%,0%,0%);stroke-opacity:1;stroke-miterlimit:4;" d="M 400.000624 250.000013 L 429.999524 250.000013 L 429.999524 280.001071 L 400.000624 280.001071 Z " transform="matrix(1.810223,0,0,1.810223,-2.57063,-5.430668)"/>
<path style="fill-rule:nonzero;fill:rgb(59.999084%,79.998779%,100%);fill-opacity:1;stroke-width:1;stroke-linecap:butt;stroke-linejoin:miter;stroke:rgb(0%,0%,0%);stroke-opacity:1;stroke-miterlimit:4;" d="M 120.000094 144.999544 L 149.998995 144.999544 L 149.998995 175.000603 L 120.000094 175.000603 Z " transform="matrix(1.810223,0,0,1.810223,-2.57063,-5.430668)"/>
<path style="fill-rule:nonzero;fill:rgb(59.999084%,79.998779%,100%);fill-opacity:1;stroke-width:1;stroke-linecap:butt;stroke-linejoin:miter;stroke:rgb(0%,0%,0%);stroke-opacity:1;stroke-miterlimit:4;" d="M 120.000094 180.00042 L 149.998995 180.00042 L 149.998995 209.999321 L 120.000094 209.999321 Z " transform="matrix(1.810223,0,0,1.810223,-2.57063,-5.430668)"/>
<path style="fill-rule:nonzero;fill:rgb(59.999084%,79.998779%,100%);fill-opacity:1;stroke-width:1;stroke-linecap:butt;stroke-linejoin:miter;stroke:rgb(0%,0%,0%);stroke-opacity:1;stroke-miterlimit:4;" d="M 155.000969 144.999544 L 184.99987 144.999544 L 184.99987 175.000603 L 155.000969 175.000603 Z " transform="matrix(1.810223,0,0,1.810223,-2.57063,-5.430668)"/>
<path style="fill-rule:nonzero;fill:rgb(59.999084%,79.998779%,100%);fill-opacity:1;stroke-width:1;stroke-linecap:butt;stroke-linejoin:miter;stroke:rgb(0%,0%,0%);stroke-opacity:1;stroke-miterlimit:4;" d="M 155.000969 180.00042 L 184.99987 180.00042 L 184.99987 209.999321 L 155.000969 209.999321 Z " transform="matrix(1.810223,0,0,1.810223,-2.57063,-5.430668)"/>
<path style="fill-rule:nonzero;fill:rgb(59.999084%,79.998779%,100%);fill-opacity:1;stroke-width:1;stroke-linecap:butt;stroke-linejoin:miter;stroke:rgb(0%,0%,0%);stroke-opacity:1;stroke-miterlimit:4;" d="M 155.000969 214.999137 L 184.99987 214.999137 L 184.99987 245.000196 L 155.000969 245.000196 Z " transform="matrix(1.810223,0,0,1.810223,-2.57063,-5.430668)"/>
<path style="fill-rule:nonzero;fill:rgb(59.999084%,79.998779%,100%);fill-opacity:1;stroke-width:1;stroke-linecap:butt;stroke-linejoin:miter;stroke:rgb(0%,0%,0%);stroke-opacity:1;stroke-miterlimit:4;" d="M 155.000969 250.000013 L 184.99987 250.000013 L 184.99987 280.001071 L 155.000969 280.001071 Z " transform="matrix(1.810223,0,0,1.810223,-2.57063,-5.430668)"/>
<path style="fill-rule:nonzero;fill:rgb(59.999084%,79.998779%,100%);fill-opacity:1;stroke-width:1;stroke-linecap:butt;stroke-linejoin:miter;stroke:rgb(0%,0%,0%);stroke-opacity:1;stroke-miterlimit:4;" d="M 189.999687 144.999544 L 220.000745 144.999544 L 220.000745 175.000603 L 189.999687 175.000603 Z " transform="matrix(1.810223,0,0,1.810223,-2.57063,-5.430668)"/>
<path style="fill-rule:nonzero;fill:rgb(59.999084%,79.998779%,100%);fill-opacity:1;stroke-width:1;stroke-linecap:butt;stroke-linejoin:miter;stroke:rgb(0%,0%,0%);stroke-opacity:1;stroke-miterlimit:4;" d="M 189.999687 180.00042 L 220.000745 180.00042 L 220.000745 209.999321 L 189.999687 209.999321 Z " transform="matrix(1.810223,0,0,1.810223,-2.57063,-5.430668)"/>
<path style="fill-rule:nonzero;fill:rgb(59.999084%,79.998779%,100%);fill-opacity:1;stroke-width:1;stroke-linecap:butt;stroke-linejoin:miter;stroke:rgb(0%,0%,0%);stroke-opacity:1;stroke-miterlimit:4;" d="M 189.999687 214.999137 L 220.000745 214.999137 L 220.000745 245.000196 L 189.999687 245.000196 Z " transform="matrix(1.810223,0,0,1.810223,-2.57063,-5.430668)"/>
<path style="fill-rule:nonzero;fill:rgb(59.999084%,79.998779%,100%);fill-opacity:1;stroke-width:1;stroke-linecap:butt;stroke-linejoin:miter;stroke:rgb(0%,0%,0%);stroke-opacity:1;stroke-miterlimit:4;" d="M 189.999687 250.000013 L 220.000745 250.000013 L 220.000745 280.001071 L 189.999687 280.001071 Z " transform="matrix(1.810223,0,0,1.810223,-2.57063,-5.430668)"/>
<path style="fill-rule:nonzero;fill:rgb(59.999084%,79.998779%,100%);fill-opacity:1;stroke-width:1;stroke-linecap:butt;stroke-linejoin:miter;stroke:rgb(0%,0%,0%);stroke-opacity:1;stroke-miterlimit:4;" d="M 225.000562 144.999544 L 254.999463 144.999544 L 254.999463 175.000603 L 225.000562 175.000603 Z " transform="matrix(1.810223,0,0,1.810223,-2.57063,-5.430668)"/>
<path style="fill-rule:nonzero;fill:rgb(59.999084%,79.998779%,100%);fill-opacity:1;stroke-width:1;stroke-linecap:butt;stroke-linejoin:miter;stroke:rgb(0%,0%,0%);stroke-opacity:1;stroke-miterlimit:4;" d="M 225.000562 180.00042 L 254.999463 180.00042 L 254.999463 209.999321 L 225.000562 209.999321 Z " transform="matrix(1.810223,0,0,1.810223,-2.57063,-5.430668)"/>
<path style="fill-rule:nonzero;fill:rgb(59.999084%,79.998779%,100%);fill-opacity:1;stroke-width:1;stroke-linecap:butt;stroke-linejoin:miter;stroke:rgb(0%,0%,0%);stroke-opacity:1;stroke-miterlimit:4;" d="M 225.000562 214.999137 L 254.999463 214.999137 L 254.999463 245.000196 L 225.000562 245.000196 Z " transform="matrix(1.810223,0,0,1.810223,-2.57063,-5.430668)"/>
<path style="fill-rule:nonzero;fill:rgb(59.999084%,79.998779%,100%);fill-opacity:1;stroke-width:1;stroke-linecap:butt;stroke-linejoin:miter;stroke:rgb(0%,0%,0%);stroke-opacity:1;stroke-miterlimit:4;" d="M 225.000562 250.000013 L 254.999463 250.000013 L 254.999463 280.001071 L 225.000562 280.001071 Z " transform="matrix(1.810223,0,0,1.810223,-2.57063,-5.430668)"/>
<path style="fill-rule:nonzero;fill:rgb(59.999084%,79.998779%,100%);fill-opacity:1;stroke-width:1;stroke-linecap:butt;stroke-linejoin:miter;stroke:rgb(0%,0%,0%);stroke-opacity:1;stroke-miterlimit:4;" d="M 259.99928 144.999544 L 290.000338 144.999544 L 290.000338 175.000603 L 259.99928 175.000603 Z " transform="matrix(1.810223,0,0,1.810223,-2.57063,-5.430668)"/>
<path style="fill-rule:nonzero;fill:rgb(59.999084%,79.998779%,100%);fill-opacity:1;stroke-width:1;stroke-linecap:butt;stroke-linejoin:miter;stroke:rgb(0%,0%,0%);stroke-opacity:1;stroke-miterlimit:4;" d="M 259.99928 180.00042 L 290.000338 180.00042 L 290.000338 209.999321 L 259.99928 209.999321 Z " transform="matrix(1.810223,0,0,1.810223,-2.57063,-5.430668)"/>
<path style="fill-rule:nonzero;fill:rgb(59.999084%,79.998779%,100%);fill-opacity:1;stroke-width:1;stroke-linecap:butt;stroke-linejoin:miter;stroke:rgb(0%,0%,0%);stroke-opacity:1;stroke-miterlimit:4;" d="M 259.99928 214.999137 L 290.000338 214.999137 L 290.000338 245.000196 L 259.99928 245.000196 Z " transform="matrix(1.810223,0,0,1.810223,-2.57063,-5.430668)"/>
<path style="fill-rule:nonzero;fill:rgb(59.999084%,79.998779%,100%);fill-opacity:1;stroke-width:1;stroke-linecap:butt;stroke-linejoin:miter;stroke:rgb(0%,0%,0%);stroke-opacity:1;stroke-miterlimit:4;" d="M 259.99928 250.000013 L 290.000338 250.000013 L 290.000338 280.001071 L 259.99928 280.001071 Z " transform="matrix(1.810223,0,0,1.810223,-2.57063,-5.430668)"/>
<path style="fill-rule:nonzero;fill:rgb(59.999084%,79.998779%,100%);fill-opacity:1;stroke-width:1;stroke-linecap:butt;stroke-linejoin:miter;stroke:rgb(0%,0%,0%);stroke-opacity:1;stroke-miterlimit:4;" d="M 295.000155 144.999544 L 324.999056 144.999544 L 324.999056 175.000603 L 295.000155 175.000603 Z " transform="matrix(1.810223,0,0,1.810223,-2.57063,-5.430668)"/>
<path style="fill-rule:nonzero;fill:rgb(59.999084%,79.998779%,100%);fill-opacity:1;stroke-width:1;stroke-linecap:butt;stroke-linejoin:miter;stroke:rgb(0%,0%,0%);stroke-opacity:1;stroke-miterlimit:4;" d="M 295.000155 180.00042 L 324.999056 180.00042 L 324.999056 209.999321 L 295.000155 209.999321 Z " transform="matrix(1.810223,0,0,1.810223,-2.57063,-5.430668)"/>
<path style="fill-rule:nonzero;fill:rgb(59.999084%,79.998779%,100%);fill-opacity:1;stroke-width:1;stroke-linecap:butt;stroke-linejoin:miter;stroke:rgb(0%,0%,0%);stroke-opacity:1;stroke-miterlimit:4;" d="M 295.000155 214.999137 L 324.999056 214.999137 L 324.999056 245.000196 L 295.000155 245.000196 Z " transform="matrix(1.810223,0,0,1.810223,-2.57063,-5.430668)"/>
<path style="fill-rule:nonzero;fill:rgb(59.999084%,79.998779%,100%);fill-opacity:1;stroke-width:1;stroke-linecap:butt;stroke-linejoin:miter;stroke:rgb(0%,0%,0%);stroke-opacity:1;stroke-miterlimit:4;" d="M 295.000155 250.000013 L 324.999056 250.000013 L 324.999056 280.001071 L 295.000155 280.001071 Z " transform="matrix(1.810223,0,0,1.810223,-2.57063,-5.430668)"/>
<path style="fill-rule:nonzero;fill:rgb(59.999084%,79.998779%,100%);fill-opacity:1;stroke-width:1;stroke-linecap:butt;stroke-linejoin:miter;stroke:rgb(0%,0%,0%);stroke-opacity:1;stroke-miterlimit:4;" d="M 330.001031 144.999544 L 359.999931 144.999544 L 359.999931 175.000603 L 330.001031 175.000603 Z " transform="matrix(1.810223,0,0,1.810223,-2.57063,-5.430668)"/>
<path style="fill-rule:nonzero;fill:rgb(59.999084%,79.998779%,100%);fill-opacity:1;stroke-width:1;stroke-linecap:butt;stroke-linejoin:miter;stroke:rgb(0%,0%,0%);stroke-opacity:1;stroke-miterlimit:4;" d="M 330.001031 180.00042 L 359.999931 180.00042 L 359.999931 209.999321 L 330.001031 209.999321 Z " transform="matrix(1.810223,0,0,1.810223,-2.57063,-5.430668)"/>
<path style="fill-rule:nonzero;fill:rgb(59.999084%,79.998779%,100%);fill-opacity:1;stroke-width:1;stroke-linecap:butt;stroke-linejoin:miter;stroke:rgb(0%,0%,0%);stroke-opacity:1;stroke-miterlimit:4;" d="M 330.001031 214.999137 L 359.999931 214.999137 L 359.999931 245.000196 L 330.001031 245.000196 Z " transform="matrix(1.810223,0,0,1.810223,-2.57063,-5.430668)"/>
<path style="fill-rule:nonzero;fill:rgb(59.999084%,79.998779%,100%);fill-opacity:1;stroke-width:1;stroke-linecap:butt;stroke-linejoin:miter;stroke:rgb(0%,0%,0%);stroke-opacity:1;stroke-miterlimit:4;" d="M 364.999748 144.999544 L 395.000807 144.999544 L 395.000807 175.000603 L 364.999748 175.000603 Z " transform="matrix(1.810223,0,0,1.810223,-2.57063,-5.430668)"/>
<path style="fill-rule:nonzero;fill:rgb(59.999084%,79.998779%,100%);fill-opacity:1;stroke-width:1;stroke-linecap:butt;stroke-linejoin:miter;stroke:rgb(0%,0%,0%);stroke-opacity:1;stroke-miterlimit:4;" d="M 364.999748 180.00042 L 395.000807 180.00042 L 395.000807 209.999321 L 364.999748 209.999321 Z " transform="matrix(1.810223,0,0,1.810223,-2.57063,-5.430668)"/>
<path style="fill-rule:nonzero;fill:rgb(59.999084%,79.998779%,100%);fill-opacity:1;stroke-width:1;stroke-linecap:butt;stroke-linejoin:miter;stroke:rgb(0%,0%,0%);stroke-opacity:1;stroke-miterlimit:4;" d="M 364.999748 214.999137 L 395.000807 214.999137 L 395.000807 245.000196 L 364.999748 245.000196 Z " transform="matrix(1.810223,0,0,1.810223,-2.57063,-5.430668)"/>
<path style="fill-rule:nonzero;fill:rgb(59.999084%,79.998779%,100%);fill-opacity:1;stroke-width:1;stroke-linecap:butt;stroke-linejoin:miter;stroke:rgb(0%,0%,0%);stroke-opacity:1;stroke-miterlimit:4;" d="M 400.000624 144.999544 L 429.999524 144.999544 L 429.999524 175.000603 L 400.000624 175.000603 Z " transform="matrix(1.810223,0,0,1.810223,-2.57063,-5.430668)"/>
<path style="fill-rule:nonzero;fill:rgb(59.999084%,79.998779%,100%);fill-opacity:1;stroke-width:1;stroke-linecap:butt;stroke-linejoin:miter;stroke:rgb(0%,0%,0%);stroke-opacity:1;stroke-miterlimit:4;" d="M 400.000624 180.00042 L 429.999524 180.00042 L 429.999524 209.999321 L 400.000624 209.999321 Z " transform="matrix(1.810223,0,0,1.810223,-2.57063,-5.430668)"/>
<path style="fill-rule:nonzero;fill:rgb(59.999084%,79.998779%,100%);fill-opacity:1;stroke-width:1;stroke-linecap:butt;stroke-linejoin:miter;stroke:rgb(0%,0%,0%);stroke-opacity:1;stroke-miterlimit:4;" d="M 400.000624 214.999137 L 429.999524 214.999137 L 429.999524 245.000196 L 400.000624 245.000196 Z " transform="matrix(1.810223,0,0,1.810223,-2.57063,-5.430668)"/>
<path style="fill-rule:nonzero;fill:rgb(59.999084%,79.998779%,100%);fill-opacity:1;stroke-width:1;stroke-linecap:butt;stroke-linejoin:miter;stroke:rgb(0%,0%,0%);stroke-opacity:1;stroke-miterlimit:4;" d="M 120.000094 250.000013 L 149.998995 250.000013 L 149.998995 280.001071 L 120.000094 280.001071 Z " transform="matrix(1.810223,0,0,1.810223,-2.57063,-5.430668)"/>
<path style="fill-rule:nonzero;fill:rgb(59.999084%,79.998779%,100%);fill-opacity:1;stroke-width:1;stroke-linecap:butt;stroke-linejoin:miter;stroke:rgb(0%,0%,0%);stroke-opacity:1;stroke-miterlimit:4;" d="M 120.000094 214.999137 L 149.998995 214.999137 L 149.998995 245.000196 L 120.000094 245.000196 Z " transform="matrix(1.810223,0,0,1.810223,-2.57063,-5.430668)"/>
<path style="fill-rule:nonzero;fill:rgb(100%,59.999084%,59.999084%);fill-opacity:1;stroke-width:1;stroke-linecap:butt;stroke-linejoin:miter;stroke:rgb(0%,0%,0%);stroke-opacity:1;stroke-miterlimit:4;" d="M 40.000867 39.999076 L 69.999768 39.999076 L 69.999768 70.000135 L 40.000867 70.000135 Z " transform="matrix(1.810223,0,0,1.810223,-2.57063,-5.430668)"/>
<path style="fill-rule:nonzero;fill:rgb(100%,59.999084%,59.999084%);fill-opacity:1;stroke-width:1;stroke-linecap:butt;stroke-linejoin:miter;stroke:rgb(0%,0%,0%);stroke-opacity:1;stroke-miterlimit:4;" d="M 40.000867 74.999951 L 69.999768 74.999951 L 69.999768 105.00101 L 40.000867 105.00101 Z " transform="matrix(1.810223,0,0,1.810223,-2.57063,-5.430668)"/>
<path style="fill-rule:nonzero;fill:rgb(100%,59.999084%,59.999084%);fill-opacity:1;stroke-width:1;stroke-linecap:butt;stroke-linejoin:miter;stroke:rgb(0%,0%,0%);stroke-opacity:1;stroke-miterlimit:4;" d="M 40.000867 110.000827 L 69.999768 110.000827 L 69.999768 139.999728 L 40.000867 139.999728 Z " transform="matrix(1.810223,0,0,1.810223,-2.57063,-5.430668)"/>
<path style="fill-rule:nonzero;fill:rgb(100%,59.999084%,59.999084%);fill-opacity:1;stroke-width:1;stroke-linecap:butt;stroke-linejoin:miter;stroke:rgb(0%,0%,0%);stroke-opacity:1;stroke-miterlimit:4;" d="M 40.000867 144.999544 L 69.999768 144.999544 L 69.999768 175.000603 L 40.000867 175.000603 Z " transform="matrix(1.810223,0,0,1.810223,-2.57063,-5.430668)"/>
<path style="fill-rule:nonzero;fill:rgb(100%,59.999084%,59.999084%);fill-opacity:1;stroke-width:1;stroke-linecap:butt;stroke-linejoin:miter;stroke:rgb(0%,0%,0%);stroke-opacity:1;stroke-miterlimit:4;" d="M 40.000867 180.00042 L 69.999768 180.00042 L 69.999768 209.999321 L 40.000867 209.999321 Z " transform="matrix(1.810223,0,0,1.810223,-2.57063,-5.430668)"/>
<path style="fill-rule:nonzero;fill:rgb(100%,59.999084%,59.999084%);fill-opacity:1;stroke-width:1;stroke-linecap:butt;stroke-linejoin:miter;stroke:rgb(0%,0%,0%);stroke-opacity:1;stroke-miterlimit:4;" d="M 40.000867 214.999137 L 69.999768 214.999137 L 69.999768 245.000196 L 40.000867 245.000196 Z " transform="matrix(1.810223,0,0,1.810223,-2.57063,-5.430668)"/>
<path style="fill-rule:nonzero;fill:rgb(100%,59.999084%,59.999084%);fill-opacity:1;stroke-width:1;stroke-linecap:butt;stroke-linejoin:miter;stroke:rgb(0%,0%,0%);stroke-opacity:1;stroke-miterlimit:4;" d="M 40.000867 250.000013 L 69.999768 250.000013 L 69.999768 280.001071 L 40.000867 280.001071 Z " transform="matrix(1.810223,0,0,1.810223,-2.57063,-5.430668)"/>
<path style="fill-rule:nonzero;fill:rgb(100%,59.999084%,59.999084%);fill-opacity:1;stroke-width:1;stroke-linecap:butt;stroke-linejoin:miter;stroke:rgb(0%,0%,0%);stroke-opacity:1;stroke-miterlimit:4;" d="M 74.999585 74.999951 L 105.000644 74.999951 L 105.000644 105.00101 L 74.999585 105.00101 Z " transform="matrix(1.810223,0,0,1.810223,-2.57063,-5.430668)"/>
<path style="fill-rule:nonzero;fill:rgb(100%,59.999084%,59.999084%);fill-opacity:1;stroke-width:1;stroke-linecap:butt;stroke-linejoin:miter;stroke:rgb(0%,0%,0%);stroke-opacity:1;stroke-miterlimit:4;" d="M 74.999585 110.000827 L 105.000644 110.000827 L 105.000644 139.999728 L 74.999585 139.999728 Z " transform="matrix(1.810223,0,0,1.810223,-2.57063,-5.430668)"/>
<path style="fill-rule:nonzero;fill:rgb(100%,59.999084%,59.999084%);fill-opacity:1;stroke-width:1;stroke-linecap:butt;stroke-linejoin:miter;stroke:rgb(0%,0%,0%);stroke-opacity:1;stroke-miterlimit:4;" d="M 74.999585 144.999544 L 105.000644 144.999544 L 105.000644 175.000603 L 74.999585 175.000603 Z " transform="matrix(1.810223,0,0,1.810223,-2.57063,-5.430668)"/>
<path style="fill-rule:nonzero;fill:rgb(100%,59.999084%,59.999084%);fill-opacity:1;stroke-width:1;stroke-linecap:butt;stroke-linejoin:miter;stroke:rgb(0%,0%,0%);stroke-opacity:1;stroke-miterlimit:4;" d="M 74.999585 180.00042 L 105.000644 180.00042 L 105.000644 209.999321 L 74.999585 209.999321 Z " transform="matrix(1.810223,0,0,1.810223,-2.57063,-5.430668)"/>
<path style="fill-rule:nonzero;fill:rgb(100%,59.999084%,59.999084%);fill-opacity:1;stroke-width:1;stroke-linecap:butt;stroke-linejoin:miter;stroke:rgb(0%,0%,0%);stroke-opacity:1;stroke-miterlimit:4;" d="M 74.999585 214.999137 L 105.000644 214.999137 L 105.000644 245.000196 L 74.999585 245.000196 Z " transform="matrix(1.810223,0,0,1.810223,-2.57063,-5.430668)"/>
<path style="fill-rule:nonzero;fill:rgb(100%,59.999084%,59.999084%);fill-opacity:1;stroke-width:1;stroke-linecap:butt;stroke-linejoin:miter;stroke:rgb(0%,0%,0%);stroke-opacity:1;stroke-miterlimit:4;" d="M 74.999585 250.000013 L 105.000644 250.000013 L 105.000644 280.001071 L 74.999585 280.001071 Z " transform="matrix(1.810223,0,0,1.810223,-2.57063,-5.430668)"/>
<path style="fill-rule:nonzero;fill:rgb(100%,59.999084%,59.999084%);fill-opacity:1;stroke-width:1;stroke-linecap:butt;stroke-linejoin:miter;stroke:rgb(0%,0%,0%);stroke-opacity:1;stroke-miterlimit:4;" d="M 645.000278 39.999076 L 674.999178 39.999076 L 674.999178 70.000135 L 645.000278 70.000135 Z " transform="matrix(1.810223,0,0,1.810223,-2.57063,-5.430668)"/>
<path style=" stroke:none;fill-rule:nonzero;fill:rgb(0%,0%,0%);fill-opacity:1;" d="M 74.742188 19.839844 L 74.742188 24.980469 L 66.472656 24.980469 L 66.472656 28.800781 L 74.742188 28.800781 L 74.742188 33.941406 L 86.945313 26.882813 Z M 32.023438 61.132813 L 26.863281 61.113281 L 33.921875 73.3125 L 40.964844 61.113281 L 35.824219 61.113281 L 35.824219 52.859375 L 32.023438 52.859375 Z "/>
</g>
</svg>
