<?xml version="1.0" encoding="UTF-8"?>
<svg xmlns="http://www.w3.org/2000/svg" xmlns:xlink="http://www.w3.org/1999/xlink" width="1189.91992pt" height="1683.83996pt" viewBox="0 0 1189.91992 1683.83996" version="1.2">
<defs>
<clipPath id="clip1">
  <path d="M 0 234 L 1190 234 L 1190 1683.414063 L 0 1683.414063 Z "/>
</clipPath>
</defs>
<g id="surface1">
<g clip-path="url(#clip1)" clip-rule="nonzero">
<path style=" stroke:none;fill-rule:nonzero;fill:rgb(100%,100%,100%);fill-opacity:1;" d="M 0 234.195313 L 1190 234.195313 L 1190 1917.609375 L 0 1917.609375 Z "/>
</g>
<path style="fill-rule:nonzero;fill:rgb(99.21875%,100%,54.899597%);fill-opacity:1;stroke-width:1;stroke-linecap:butt;stroke-linejoin:miter;stroke:rgb(0%,0%,0%);stroke-opacity:1;stroke-miterlimit:4;" d="M 539.99908 75.000634 L 570.000804 75.000634 L 570.000804 105.000168 L 539.99908 105.000168 Z " transform="matrix(1.783621,0,0,1.783621,-2.532854,-5.350865)"/>
<path style="fill-rule:nonzero;fill:rgb(99.21875%,100%,54.899597%);fill-opacity:1;stroke-width:1;stroke-linecap:butt;stroke-linejoin:miter;stroke:rgb(0%,0%,0%);stroke-opacity:1;stroke-miterlimit:4;" d="M 575.000726 75.000634 L 605.00026 75.000634 L 605.00026 105.000168 L 575.000726 105.000168 Z " transform="matrix(1.783621,0,0,1.783621,-2.532854,-5.350865)"/>
<path style="fill-rule:nonzero;fill:rgb(99.21875%,100%,54.899597%);fill-opacity:1;stroke-width:1;stroke-linecap:butt;stroke-linejoin:miter;stroke:rgb(0%,0%,0%);stroke-opacity:1;stroke-miterlimit:4;" d="M 575.000726 144.999546 L 605.00026 144.999546 L 605.00026 174.99908 L 575.000726 174.99908 Z " transform="matrix(1.783621,0,0,1.783621,-2.532854,-5.350865)"/>
<path style="fill-rule:nonzero;fill:rgb(99.21875%,100%,54.899597%);fill-opacity:1;stroke-width:1;stroke-linecap:butt;stroke-linejoin:miter;stroke:rgb(0%,0%,0%);stroke-opacity:1;stroke-miterlimit:4;" d="M 504.999624 75.000634 L 534.999158 75.000634 L 534.999158 105.000168 L 504.999624 105.000168 Z " transform="matrix(1.783621,0,0,1.783621,-2.532854,-5.350865)"/>
<path style="fill-rule:nonzero;fill:rgb(99.21875%,100%,54.899597%);fill-opacity:1;stroke-width:1;stroke-linecap:butt;stroke-linejoin:miter;stroke:rgb(0%,0%,0%);stroke-opacity:1;stroke-miterlimit:4;" d="M 539.99908 110.00009 L 570.000804 110.00009 L 570.000804 139.999624 L 539.99908 139.999624 Z " transform="matrix(1.783621,0,0,1.783621,-2.532854,-5.350865)"/>
<path style="fill-rule:nonzero;fill:rgb(99.21875%,100%,54.899597%);fill-opacity:1;stroke-width:1;stroke-linecap:butt;stroke-linejoin:miter;stroke:rgb(0%,0%,0%);stroke-opacity:1;stroke-miterlimit:4;" d="M 575.000726 110.00009 L 605.00026 110.00009 L 605.00026 139.999624 L 575.000726 139.999624 Z " transform="matrix(1.783621,0,0,1.783621,-2.532854,-5.350865)"/>
<path style="fill-rule:nonzero;fill:rgb(99.21875%,100%,54.899597%);fill-opacity:1;stroke-width:1;stroke-linecap:butt;stroke-linejoin:miter;stroke:rgb(0%,0%,0%);stroke-opacity:1;stroke-miterlimit:4;" d="M 644.999639 144.999546 L 674.999172 144.999546 L 674.999172 174.99908 L 644.999639 174.99908 Z " transform="matrix(1.783621,0,0,1.783621,-2.532854,-5.350865)"/>
<path style="fill-rule:nonzero;fill:rgb(99.21875%,100%,54.899597%);fill-opacity:1;stroke-width:1;stroke-linecap:butt;stroke-linejoin:miter;stroke:rgb(0%,0%,0%);stroke-opacity:1;stroke-miterlimit:4;" d="M 644.999639 179.999002 L 674.999172 179.999002 L 674.999172 210.000726 L 644.999639 210.000726 Z " transform="matrix(1.783621,0,0,1.783621,-2.532854,-5.350865)"/>
<path style="fill-rule:nonzero;fill:rgb(99.21875%,100%,54.899597%);fill-opacity:1;stroke-width:1;stroke-linecap:butt;stroke-linejoin:miter;stroke:rgb(0%,0%,0%);stroke-opacity:1;stroke-miterlimit:4;" d="M 644.999639 215.000649 L 674.999172 215.000649 L 674.999172 245.000182 L 644.999639 245.000182 Z " transform="matrix(1.783621,0,0,1.783621,-2.532854,-5.350865)"/>
<path style="fill-rule:nonzero;fill:rgb(99.21875%,100%,54.899597%);fill-opacity:1;stroke-width:1;stroke-linecap:butt;stroke-linejoin:miter;stroke:rgb(0%,0%,0%);stroke-opacity:1;stroke-miterlimit:4;" d="M 644.999639 75.000634 L 674.999172 75.000634 L 674.999172 105.000168 L 644.999639 105.000168 Z " transform="matrix(1.783621,0,0,1.783621,-2.532854,-5.350865)"/>
<path style="fill-rule:nonzero;fill:rgb(99.21875%,100%,54.899597%);fill-opacity:1;stroke-width:1;stroke-linecap:butt;stroke-linejoin:miter;stroke:rgb(0%,0%,0%);stroke-opacity:1;stroke-miterlimit:4;" d="M 644.999639 110.00009 L 674.999172 110.00009 L 674.999172 139.999624 L 644.999639 139.999624 Z " transform="matrix(1.783621,0,0,1.783621,-2.532854,-5.350865)"/>
<path style="fill-rule:nonzero;fill:rgb(99.21875%,100%,54.899597%);fill-opacity:1;stroke-width:1;stroke-linecap:butt;stroke-linejoin:miter;stroke:rgb(0%,0%,0%);stroke-opacity:1;stroke-miterlimit:4;" d="M 644.999639 250.000105 L 674.999172 250.000105 L 674.999172 279.999639 L 644.999639 279.999639 Z " transform="matrix(1.783621,0,0,1.783621,-2.532854,-5.350865)"/>
<path style="fill-rule:nonzero;fill:rgb(99.21875%,100%,54.899597%);fill-opacity:1;stroke-width:1;stroke-linecap:butt;stroke-linejoin:miter;stroke:rgb(0%,0%,0%);stroke-opacity:1;stroke-miterlimit:4;" d="M 504.999624 144.999546 L 534.999158 144.999546 L 534.999158 174.99908 L 504.999624 174.99908 Z " transform="matrix(1.783621,0,0,1.783621,-2.532854,-5.350865)"/>
<path style="fill-rule:nonzero;fill:rgb(99.21875%,100%,54.899597%);fill-opacity:1;stroke-width:1;stroke-linecap:butt;stroke-linejoin:miter;stroke:rgb(0%,0%,0%);stroke-opacity:1;stroke-miterlimit:4;" d="M 539.99908 144.999546 L 570.000804 144.999546 L 570.000804 174.99908 L 539.99908 174.99908 Z " transform="matrix(1.783621,0,0,1.783621,-2.532854,-5.350865)"/>
<path style="fill-rule:nonzero;fill:rgb(99.21875%,100%,54.899597%);fill-opacity:1;stroke-width:1;stroke-linecap:butt;stroke-linejoin:miter;stroke:rgb(0%,0%,0%);stroke-opacity:1;stroke-miterlimit:4;" d="M 539.99908 179.999002 L 570.000804 179.999002 L 570.000804 210.000726 L 539.99908 210.000726 Z " transform="matrix(1.783621,0,0,1.783621,-2.532854,-5.350865)"/>
<path style="fill-rule:nonzero;fill:rgb(99.21875%,100%,54.899597%);fill-opacity:1;stroke-width:1;stroke-linecap:butt;stroke-linejoin:miter;stroke:rgb(0%,0%,0%);stroke-opacity:1;stroke-miterlimit:4;" d="M 575.000726 179.999002 L 605.00026 179.999002 L 605.00026 210.000726 L 575.000726 210.000726 Z " transform="matrix(1.783621,0,0,1.783621,-2.532854,-5.350865)"/>
<path style="fill-rule:nonzero;fill:rgb(99.21875%,100%,54.899597%);fill-opacity:1;stroke-width:1;stroke-linecap:butt;stroke-linejoin:miter;stroke:rgb(0%,0%,0%);stroke-opacity:1;stroke-miterlimit:4;" d="M 470.000167 75.000634 L 499.999701 75.000634 L 499.999701 105.000168 L 470.000167 105.000168 Z " transform="matrix(1.783621,0,0,1.783621,-2.532854,-5.350865)"/>
<path style="fill-rule:nonzero;fill:rgb(99.21875%,100%,54.899597%);fill-opacity:1;stroke-width:1;stroke-linecap:butt;stroke-linejoin:miter;stroke:rgb(0%,0%,0%);stroke-opacity:1;stroke-miterlimit:4;" d="M 504.999624 110.00009 L 534.999158 110.00009 L 534.999158 139.999624 L 504.999624 139.999624 Z " transform="matrix(1.783621,0,0,1.783621,-2.532854,-5.350865)"/>
<path style="fill-rule:nonzero;fill:rgb(99.21875%,100%,54.899597%);fill-opacity:1;stroke-width:1;stroke-linecap:butt;stroke-linejoin:miter;stroke:rgb(0%,0%,0%);stroke-opacity:1;stroke-miterlimit:4;" d="M 470.000167 144.999546 L 499.999701 144.999546 L 499.999701 174.99908 L 470.000167 174.99908 Z " transform="matrix(1.783621,0,0,1.783621,-2.532854,-5.350865)"/>
<path style="fill-rule:nonzero;fill:rgb(99.21875%,100%,54.899597%);fill-opacity:1;stroke-width:1;stroke-linecap:butt;stroke-linejoin:miter;stroke:rgb(0%,0%,0%);stroke-opacity:1;stroke-miterlimit:4;" d="M 470.000167 179.999002 L 499.999701 179.999002 L 499.999701 210.000726 L 470.000167 210.000726 Z " transform="matrix(1.783621,0,0,1.783621,-2.532854,-5.350865)"/>
<path style="fill-rule:nonzero;fill:rgb(99.21875%,100%,54.899597%);fill-opacity:1;stroke-width:1;stroke-linecap:butt;stroke-linejoin:miter;stroke:rgb(0%,0%,0%);stroke-opacity:1;stroke-miterlimit:4;" d="M 470.000167 215.000649 L 499.999701 215.000649 L 499.999701 245.000182 L 470.000167 245.000182 Z " transform="matrix(1.783621,0,0,1.783621,-2.532854,-5.350865)"/>
<path style="fill-rule:nonzero;fill:rgb(99.21875%,100%,54.899597%);fill-opacity:1;stroke-width:1;stroke-linecap:butt;stroke-linejoin:miter;stroke:rgb(0%,0%,0%);stroke-opacity:1;stroke-miterlimit:4;" d="M 504.999624 179.999002 L 534.999158 179.999002 L 534.999158 210.000726 L 504.999624 210.000726 Z " transform="matrix(1.783621,0,0,1.783621,-2.532854,-5.350865)"/>
<path style="fill-rule:nonzero;fill:rgb(99.21875%,100%,54.899597%);fill-opacity:1;stroke-width:1;stroke-linecap:butt;stroke-linejoin:miter;stroke:rgb(0%,0%,0%);stroke-opacity:1;stroke-miterlimit:4;" d="M 504.999624 215.000649 L 534.999158 215.000649 L 534.999158 245.000182 L 504.999624 245.000182 Z " transform="matrix(1.783621,0,0,1.783621,-2.532854,-5.350865)"/>
<path style="fill-rule:nonzero;fill:rgb(99.21875%,100%,54.899597%);fill-opacity:1;stroke-width:1;stroke-linecap:butt;stroke-linejoin:miter;stroke:rgb(0%,0%,0%);stroke-opacity:1;stroke-miterlimit:4;" d="M 539.99908 215.000649 L 570.000804 215.000649 L 570.000804 245.000182 L 539.99908 245.000182 Z " transform="matrix(1.783621,0,0,1.783621,-2.532854,-5.350865)"/>
<path style="fill-rule:nonzero;fill:rgb(99.21875%,100%,54.899597%);fill-opacity:1;stroke-width:1;stroke-linecap:butt;stroke-linejoin:miter;stroke:rgb(0%,0%,0%);stroke-opacity:1;stroke-miterlimit:4;" d="M 575.000726 215.000649 L 605.00026 215.000649 L 605.00026 245.000182 L 575.000726 245.000182 Z " transform="matrix(1.783621,0,0,1.783621,-2.532854,-5.350865)"/>
<path style="fill-rule:nonzero;fill:rgb(99.21875%,100%,54.899597%);fill-opacity:1;stroke-width:1;stroke-linecap:butt;stroke-linejoin:miter;stroke:rgb(0%,0%,0%);stroke-opacity:1;stroke-miterlimit:4;" d="M 470.000167 110.00009 L 499.999701 110.00009 L 499.999701 139.999624 L 470.000167 139.999624 Z " transform="matrix(1.783621,0,0,1.783621,-2.532854,-5.350865)"/>
<path style="fill-rule:nonzero;fill:rgb(99.21875%,100%,54.899597%);fill-opacity:1;stroke-width:1;stroke-linecap:butt;stroke-linejoin:miter;stroke:rgb(0%,0%,0%);stroke-opacity:1;stroke-miterlimit:4;" d="M 470.000167 250.000105 L 499.999701 250.000105 L 499.999701 279.999639 L 470.000167 279.999639 Z " transform="matrix(1.783621,0,0,1.783621,-2.532854,-5.350865)"/>
<path style="fill-rule:nonzero;fill:rgb(99.21875%,100%,54.899597%);fill-opacity:1;stroke-width:1;stroke-linecap:butt;stroke-linejoin:miter;stroke:rgb(0%,0%,0%);stroke-opacity:1;stroke-miterlimit:4;" d="M 504.999624 250.000105 L 534.999158 250.000105 L 534.999158 279.999639 L 504.999624 279.999639 Z " transform="matrix(1.783621,0,0,1.783621,-2.532854,-5.350865)"/>
<path style="fill-rule:nonzero;fill:rgb(99.21875%,100%,54.899597%);fill-opacity:1;stroke-width:1;stroke-linecap:butt;stroke-linejoin:miter;stroke:rgb(0%,0%,0%);stroke-opacity:1;stroke-miterlimit:4;" d="M 539.99908 250.000105 L 570.000804 250.000105 L 570.000804 279.999639 L 539.99908 279.999639 Z " transform="matrix(1.783621,0,0,1.783621,-2.532854,-5.350865)"/>
<path style="fill-rule:nonzero;fill:rgb(99.21875%,100%,54.899597%);fill-opacity:1;stroke-width:1;stroke-linecap:butt;stroke-linejoin:miter;stroke:rgb(0%,0%,0%);stroke-opacity:1;stroke-miterlimit:4;" d="M 575.000726 250.000105 L 605.00026 250.000105 L 605.00026 279.999639 L 575.000726 279.999639 Z " transform="matrix(1.783621,0,0,1.783621,-2.532854,-5.350865)"/>
<path style="fill-rule:nonzero;fill:rgb(99.21875%,100%,54.899597%);fill-opacity:1;stroke-width:1;stroke-linecap:butt;stroke-linejoin:miter;stroke:rgb(0%,0%,0%);stroke-opacity:1;stroke-miterlimit:4;" d="M 610.000182 75.000634 L 639.999716 75.000634 L 639.999716 105.000168 L 610.000182 105.000168 Z " transform="matrix(1.783621,0,0,1.783621,-2.532854,-5.350865)"/>
<path style="fill-rule:nonzero;fill:rgb(99.21875%,100%,54.899597%);fill-opacity:1;stroke-width:1;stroke-linecap:butt;stroke-linejoin:miter;stroke:rgb(0%,0%,0%);stroke-opacity:1;stroke-miterlimit:4;" d="M 610.000182 110.00009 L 639.999716 110.00009 L 639.999716 139.999624 L 610.000182 139.999624 Z " transform="matrix(1.783621,0,0,1.783621,-2.532854,-5.350865)"/>
<path style="fill-rule:nonzero;fill:rgb(99.21875%,100%,54.899597%);fill-opacity:1;stroke-width:1;stroke-linecap:butt;stroke-linejoin:miter;stroke:rgb(0%,0%,0%);stroke-opacity:1;stroke-miterlimit:4;" d="M 610.000182 144.999546 L 639.999716 144.999546 L 639.999716 174.99908 L 610.000182 174.99908 Z " transform="matrix(1.783621,0,0,1.783621,-2.532854,-5.350865)"/>
<path style="fill-rule:nonzero;fill:rgb(99.21875%,100%,54.899597%);fill-opacity:1;stroke-width:1;stroke-linecap:butt;stroke-linejoin:miter;stroke:rgb(0%,0%,0%);stroke-opacity:1;stroke-miterlimit:4;" d="M 610.000182 179.999002 L 639.999716 179.999002 L 639.999716 210.000726 L 610.000182 210.000726 Z " transform="matrix(1.783621,0,0,1.783621,-2.532854,-5.350865)"/>
<path style="fill-rule:nonzero;fill:rgb(99.21875%,100%,54.899597%);fill-opacity:1;stroke-width:1;stroke-linecap:butt;stroke-linejoin:miter;stroke:rgb(0%,0%,0%);stroke-opacity:1;stroke-miterlimit:4;" d="M 610.000182 215.000649 L 639.999716 215.000649 L 639.999716 245.000182 L 610.000182 245.000182 Z " transform="matrix(1.783621,0,0,1.783621,-2.532854,-5.350865)"/>
<path style="fill-rule:nonzero;fill:rgb(99.21875%,100%,54.899597%);fill-opacity:1;stroke-width:1;stroke-linecap:butt;stroke-linejoin:miter;stroke:rgb(0%,0%,0%);stroke-opacity:1;stroke-miterlimit:4;" d="M 610.000182 250.000105 L 639.999716 250.000105 L 639.999716 279.999639 L 610.000182 279.999639 Z " transform="matrix(1.783621,0,0,1.783621,-2.532854,-5.350865)"/>
<path style="fill-rule:nonzero;fill:rgb(60.778809%,100%,59.999084%);fill-opacity:1;stroke-width:1;stroke-linecap:butt;stroke-linejoin:miter;stroke:rgb(0%,0%,0%);stroke-opacity:1;stroke-miterlimit:4;" d="M 155.000681 330.001052 L 185.000215 330.001052 L 185.000215 360.000586 L 155.000681 360.000586 Z " transform="matrix(1.783621,0,0,1.783621,-2.532854,-5.350865)"/>
<path style="fill-rule:nonzero;fill:rgb(60.778809%,100%,59.999084%);fill-opacity:1;stroke-width:1;stroke-linecap:butt;stroke-linejoin:miter;stroke:rgb(0%,0%,0%);stroke-opacity:1;stroke-miterlimit:4;" d="M 190.000138 330.001052 L 219.999671 330.001052 L 219.999671 360.000586 L 190.000138 360.000586 Z " transform="matrix(1.783621,0,0,1.783621,-2.532854,-5.350865)"/>
<path style="fill-rule:nonzero;fill:rgb(60.778809%,100%,59.999084%);fill-opacity:1;stroke-width:1;stroke-linecap:butt;stroke-linejoin:miter;stroke:rgb(0%,0%,0%);stroke-opacity:1;stroke-miterlimit:4;" d="M 224.999594 330.001052 L 254.999128 330.001052 L 254.999128 360.000586 L 224.999594 360.000586 Z " transform="matrix(1.783621,0,0,1.783621,-2.532854,-5.350865)"/>
<path style="fill-rule:nonzero;fill:rgb(60.778809%,100%,59.999084%);fill-opacity:1;stroke-width:1;stroke-linecap:butt;stroke-linejoin:miter;stroke:rgb(0%,0%,0%);stroke-opacity:1;stroke-miterlimit:4;" d="M 259.99905 330.001052 L 290.000774 330.001052 L 290.000774 360.000586 L 259.99905 360.000586 Z " transform="matrix(1.783621,0,0,1.783621,-2.532854,-5.350865)"/>
<path style="fill-rule:nonzero;fill:rgb(60.778809%,100%,59.999084%);fill-opacity:1;stroke-width:1;stroke-linecap:butt;stroke-linejoin:miter;stroke:rgb(0%,0%,0%);stroke-opacity:1;stroke-miterlimit:4;" d="M 295.000696 330.001052 L 325.00023 330.001052 L 325.00023 360.000586 L 295.000696 360.000586 Z " transform="matrix(1.783621,0,0,1.783621,-2.532854,-5.350865)"/>
<path style="fill-rule:nonzero;fill:rgb(60.778809%,100%,59.999084%);fill-opacity:1;stroke-width:1;stroke-linecap:butt;stroke-linejoin:miter;stroke:rgb(0%,0%,0%);stroke-opacity:1;stroke-miterlimit:4;" d="M 330.000152 330.001052 L 359.999686 330.001052 L 359.999686 360.000586 L 330.000152 360.000586 Z " transform="matrix(1.783621,0,0,1.783621,-2.532854,-5.350865)"/>
<path style="fill-rule:nonzero;fill:rgb(60.778809%,100%,59.999084%);fill-opacity:1;stroke-width:1;stroke-linecap:butt;stroke-linejoin:miter;stroke:rgb(0%,0%,0%);stroke-opacity:1;stroke-miterlimit:4;" d="M 364.999609 330.001052 L 394.999143 330.001052 L 394.999143 360.000586 L 364.999609 360.000586 Z " transform="matrix(1.783621,0,0,1.783621,-2.532854,-5.350865)"/>
<path style="fill-rule:nonzero;fill:rgb(60.778809%,100%,59.999084%);fill-opacity:1;stroke-width:1;stroke-linecap:butt;stroke-linejoin:miter;stroke:rgb(0%,0%,0%);stroke-opacity:1;stroke-miterlimit:4;" d="M 399.999065 330.001052 L 430.000789 330.001052 L 430.000789 360.000586 L 399.999065 360.000586 Z " transform="matrix(1.783621,0,0,1.783621,-2.532854,-5.350865)"/>
<path style="fill-rule:nonzero;fill:rgb(60.778809%,100%,59.999084%);fill-opacity:1;stroke-width:1;stroke-linecap:butt;stroke-linejoin:miter;stroke:rgb(0%,0%,0%);stroke-opacity:1;stroke-miterlimit:4;" d="M 435.000711 330.001052 L 465.000245 330.001052 L 465.000245 360.000586 L 435.000711 360.000586 Z " transform="matrix(1.783621,0,0,1.783621,-2.532854,-5.350865)"/>
<path style="fill-rule:nonzero;fill:rgb(60.778809%,100%,59.999084%);fill-opacity:1;stroke-width:1;stroke-linecap:butt;stroke-linejoin:miter;stroke:rgb(0%,0%,0%);stroke-opacity:1;stroke-miterlimit:4;" d="M 470.000167 330.001052 L 499.999701 330.001052 L 499.999701 360.000586 L 470.000167 360.000586 Z " transform="matrix(1.783621,0,0,1.783621,-2.532854,-5.350865)"/>
<path style="fill-rule:nonzero;fill:rgb(60.778809%,100%,59.999084%);fill-opacity:1;stroke-width:1;stroke-linecap:butt;stroke-linejoin:miter;stroke:rgb(0%,0%,0%);stroke-opacity:1;stroke-miterlimit:4;" d="M 504.999624 330.001052 L 534.999158 330.001052 L 534.999158 360.000586 L 504.999624 360.000586 Z " transform="matrix(1.783621,0,0,1.783621,-2.532854,-5.350865)"/>
<path style="fill-rule:nonzero;fill:rgb(60.778809%,100%,59.999084%);fill-opacity:1;stroke-width:1;stroke-linecap:butt;stroke-linejoin:miter;stroke:rgb(0%,0%,0%);stroke-opacity:1;stroke-miterlimit:4;" d="M 539.99908 330.001052 L 570.000804 330.001052 L 570.000804 360.000586 L 539.99908 360.000586 Z " transform="matrix(1.783621,0,0,1.783621,-2.532854,-5.350865)"/>
<path style="fill-rule:nonzero;fill:rgb(60.778809%,100%,59.999084%);fill-opacity:1;stroke-width:1;stroke-linecap:butt;stroke-linejoin:miter;stroke:rgb(0%,0%,0%);stroke-opacity:1;stroke-miterlimit:4;" d="M 575.000726 330.001052 L 605.00026 330.001052 L 605.00026 360.000586 L 575.000726 360.000586 Z " transform="matrix(1.783621,0,0,1.783621,-2.532854,-5.350865)"/>
<path style="fill-rule:nonzero;fill:rgb(60.778809%,100%,59.999084%);fill-opacity:1;stroke-width:1;stroke-linecap:butt;stroke-linejoin:miter;stroke:rgb(0%,0%,0%);stroke-opacity:1;stroke-miterlimit:4;" d="M 119.999035 330.001052 L 150.000759 330.001052 L 150.000759 360.000586 L 119.999035 360.000586 Z " transform="matrix(1.783621,0,0,1.783621,-2.532854,-5.350865)"/>
<path style="fill-rule:nonzero;fill:rgb(60.778809%,100%,59.999084%);fill-opacity:1;stroke-width:1;stroke-linecap:butt;stroke-linejoin:miter;stroke:rgb(0%,0%,0%);stroke-opacity:1;stroke-miterlimit:4;" d="M 155.000681 294.999406 L 185.000215 294.999406 L 185.000215 324.99894 L 155.000681 324.99894 Z " transform="matrix(1.783621,0,0,1.783621,-2.532854,-5.350865)"/>
<path style="fill-rule:nonzero;fill:rgb(60.778809%,100%,59.999084%);fill-opacity:1;stroke-width:1;stroke-linecap:butt;stroke-linejoin:miter;stroke:rgb(0%,0%,0%);stroke-opacity:1;stroke-miterlimit:4;" d="M 190.000138 294.999406 L 219.999671 294.999406 L 219.999671 324.99894 L 190.000138 324.99894 Z " transform="matrix(1.783621,0,0,1.783621,-2.532854,-5.350865)"/>
<path style="fill-rule:nonzero;fill:rgb(60.778809%,100%,59.999084%);fill-opacity:1;stroke-width:1;stroke-linecap:butt;stroke-linejoin:miter;stroke:rgb(0%,0%,0%);stroke-opacity:1;stroke-miterlimit:4;" d="M 224.999594 294.999406 L 254.999128 294.999406 L 254.999128 324.99894 L 224.999594 324.99894 Z " transform="matrix(1.783621,0,0,1.783621,-2.532854,-5.350865)"/>
<path style="fill-rule:nonzero;fill:rgb(60.778809%,100%,59.999084%);fill-opacity:1;stroke-width:1;stroke-linecap:butt;stroke-linejoin:miter;stroke:rgb(0%,0%,0%);stroke-opacity:1;stroke-miterlimit:4;" d="M 259.99905 294.999406 L 290.000774 294.999406 L 290.000774 324.99894 L 259.99905 324.99894 Z " transform="matrix(1.783621,0,0,1.783621,-2.532854,-5.350865)"/>
<path style="fill-rule:nonzero;fill:rgb(60.778809%,100%,59.999084%);fill-opacity:1;stroke-width:1;stroke-linecap:butt;stroke-linejoin:miter;stroke:rgb(0%,0%,0%);stroke-opacity:1;stroke-miterlimit:4;" d="M 295.000696 294.999406 L 325.00023 294.999406 L 325.00023 324.99894 L 295.000696 324.99894 Z " transform="matrix(1.783621,0,0,1.783621,-2.532854,-5.350865)"/>
<path style="fill-rule:nonzero;fill:rgb(60.778809%,100%,59.999084%);fill-opacity:1;stroke-width:1;stroke-linecap:butt;stroke-linejoin:miter;stroke:rgb(0%,0%,0%);stroke-opacity:1;stroke-miterlimit:4;" d="M 330.000152 294.999406 L 359.999686 294.999406 L 359.999686 324.99894 L 330.000152 324.99894 Z " transform="matrix(1.783621,0,0,1.783621,-2.532854,-5.350865)"/>
<path style="fill-rule:nonzero;fill:rgb(60.778809%,100%,59.999084%);fill-opacity:1;stroke-width:1;stroke-linecap:butt;stroke-linejoin:miter;stroke:rgb(0%,0%,0%);stroke-opacity:1;stroke-miterlimit:4;" d="M 364.999609 294.999406 L 394.999143 294.999406 L 394.999143 324.99894 L 364.999609 324.99894 Z " transform="matrix(1.783621,0,0,1.783621,-2.532854,-5.350865)"/>
<path style="fill-rule:nonzero;fill:rgb(60.778809%,100%,59.999084%);fill-opacity:1;stroke-width:1;stroke-linecap:butt;stroke-linejoin:miter;stroke:rgb(0%,0%,0%);stroke-opacity:1;stroke-miterlimit:4;" d="M 399.999065 294.999406 L 430.000789 294.999406 L 430.000789 324.99894 L 399.999065 324.99894 Z " transform="matrix(1.783621,0,0,1.783621,-2.532854,-5.350865)"/>
<path style="fill-rule:nonzero;fill:rgb(60.778809%,100%,59.999084%);fill-opacity:1;stroke-width:1;stroke-linecap:butt;stroke-linejoin:miter;stroke:rgb(0%,0%,0%);stroke-opacity:1;stroke-miterlimit:4;" d="M 435.000711 294.999406 L 465.000245 294.999406 L 465.000245 324.99894 L 435.000711 324.99894 Z " transform="matrix(1.783621,0,0,1.783621,-2.532854,-5.350865)"/>
<path style="fill-rule:nonzero;fill:rgb(60.778809%,100%,59.999084%);fill-opacity:1;stroke-width:1;stroke-linecap:butt;stroke-linejoin:miter;stroke:rgb(0%,0%,0%);stroke-opacity:1;stroke-miterlimit:4;" d="M 470.000167 294.999406 L 499.999701 294.999406 L 499.999701 324.99894 L 470.000167 324.99894 Z " transform="matrix(1.783621,0,0,1.783621,-2.532854,-5.350865)"/>
<path style="fill-rule:nonzero;fill:rgb(60.778809%,100%,59.999084%);fill-opacity:1;stroke-width:1;stroke-linecap:butt;stroke-linejoin:miter;stroke:rgb(0%,0%,0%);stroke-opacity:1;stroke-miterlimit:4;" d="M 504.999624 294.999406 L 534.999158 294.999406 L 534.999158 324.99894 L 504.999624 324.99894 Z " transform="matrix(1.783621,0,0,1.783621,-2.532854,-5.350865)"/>
<path style="fill-rule:nonzero;fill:rgb(60.778809%,100%,59.999084%);fill-opacity:1;stroke-width:1;stroke-linecap:butt;stroke-linejoin:miter;stroke:rgb(0%,0%,0%);stroke-opacity:1;stroke-miterlimit:4;" d="M 539.99908 294.999406 L 570.000804 294.999406 L 570.000804 324.99894 L 539.99908 324.99894 Z " transform="matrix(1.783621,0,0,1.783621,-2.532854,-5.350865)"/>
<path style="fill-rule:nonzero;fill:rgb(60.778809%,100%,59.999084%);fill-opacity:1;stroke-width:1;stroke-linecap:butt;stroke-linejoin:miter;stroke:rgb(0%,0%,0%);stroke-opacity:1;stroke-miterlimit:4;" d="M 575.000726 294.999406 L 605.00026 294.999406 L 605.00026 324.99894 L 575.000726 324.99894 Z " transform="matrix(1.783621,0,0,1.783621,-2.532854,-5.350865)"/>
<path style="fill-rule:nonzero;fill:rgb(60.778809%,100%,59.999084%);fill-opacity:1;stroke-width:1;stroke-linecap:butt;stroke-linejoin:miter;stroke:rgb(0%,0%,0%);stroke-opacity:1;stroke-miterlimit:4;" d="M 119.999035 294.999406 L 150.000759 294.999406 L 150.000759 324.99894 L 119.999035 324.99894 Z " transform="matrix(1.783621,0,0,1.783621,-2.532854,-5.350865)"/>
<path style="fill-rule:nonzero;fill:rgb(59.999084%,79.998779%,100%);fill-opacity:1;stroke-width:1;stroke-linecap:butt;stroke-linejoin:miter;stroke:rgb(0%,0%,0%);stroke-opacity:1;stroke-miterlimit:4;" d="M 435.000711 144.999546 L 465.000245 144.999546 L 465.000245 174.99908 L 435.000711 174.99908 Z " transform="matrix(1.783621,0,0,1.783621,-2.532854,-5.350865)"/>
<path style="fill-rule:nonzero;fill:rgb(59.999084%,79.998779%,100%);fill-opacity:1;stroke-width:1;stroke-linecap:butt;stroke-linejoin:miter;stroke:rgb(0%,0%,0%);stroke-opacity:1;stroke-miterlimit:4;" d="M 435.000711 179.999002 L 465.000245 179.999002 L 465.000245 210.000726 L 435.000711 210.000726 Z " transform="matrix(1.783621,0,0,1.783621,-2.532854,-5.350865)"/>
<path style="fill-rule:nonzero;fill:rgb(59.999084%,79.998779%,100%);fill-opacity:1;stroke-width:1;stroke-linecap:butt;stroke-linejoin:miter;stroke:rgb(0%,0%,0%);stroke-opacity:1;stroke-miterlimit:4;" d="M 435.000711 215.000649 L 465.000245 215.000649 L 465.000245 245.000182 L 435.000711 245.000182 Z " transform="matrix(1.783621,0,0,1.783621,-2.532854,-5.350865)"/>
<path style="fill-rule:nonzero;fill:rgb(59.999084%,79.998779%,100%);fill-opacity:1;stroke-width:1;stroke-linecap:butt;stroke-linejoin:miter;stroke:rgb(0%,0%,0%);stroke-opacity:1;stroke-miterlimit:4;" d="M 435.000711 250.000105 L 465.000245 250.000105 L 465.000245 279.999639 L 435.000711 279.999639 Z " transform="matrix(1.783621,0,0,1.783621,-2.532854,-5.350865)"/>
<path style="fill-rule:nonzero;fill:rgb(59.999084%,79.998779%,100%);fill-opacity:1;stroke-width:1;stroke-linecap:butt;stroke-linejoin:miter;stroke:rgb(0%,0%,0%);stroke-opacity:1;stroke-miterlimit:4;" d="M 330.000152 250.000105 L 359.999686 250.000105 L 359.999686 279.999639 L 330.000152 279.999639 Z " transform="matrix(1.783621,0,0,1.783621,-2.532854,-5.350865)"/>
<path style="fill-rule:nonzero;fill:rgb(59.999084%,79.998779%,100%);fill-opacity:1;stroke-width:1;stroke-linecap:butt;stroke-linejoin:miter;stroke:rgb(0%,0%,0%);stroke-opacity:1;stroke-miterlimit:4;" d="M 364.999609 250.000105 L 394.999143 250.000105 L 394.999143 279.999639 L 364.999609 279.999639 Z " transform="matrix(1.783621,0,0,1.783621,-2.532854,-5.350865)"/>
<path style="fill-rule:nonzero;fill:rgb(59.999084%,79.998779%,100%);fill-opacity:1;stroke-width:1;stroke-linecap:butt;stroke-linejoin:miter;stroke:rgb(0%,0%,0%);stroke-opacity:1;stroke-miterlimit:4;" d="M 399.999065 250.000105 L 430.000789 250.000105 L 430.000789 279.999639 L 399.999065 279.999639 Z " transform="matrix(1.783621,0,0,1.783621,-2.532854,-5.350865)"/>
<path style="fill-rule:nonzero;fill:rgb(59.999084%,79.998779%,100%);fill-opacity:1;stroke-width:1;stroke-linecap:butt;stroke-linejoin:miter;stroke:rgb(0%,0%,0%);stroke-opacity:1;stroke-miterlimit:4;" d="M 119.999035 144.999546 L 150.000759 144.999546 L 150.000759 174.99908 L 119.999035 174.99908 Z " transform="matrix(1.783621,0,0,1.783621,-2.532854,-5.350865)"/>
<path style="fill-rule:nonzero;fill:rgb(59.999084%,79.998779%,100%);fill-opacity:1;stroke-width:1;stroke-linecap:butt;stroke-linejoin:miter;stroke:rgb(0%,0%,0%);stroke-opacity:1;stroke-miterlimit:4;" d="M 119.999035 179.999002 L 150.000759 179.999002 L 150.000759 210.000726 L 119.999035 210.000726 Z " transform="matrix(1.783621,0,0,1.783621,-2.532854,-5.350865)"/>
<path style="fill-rule:nonzero;fill:rgb(59.999084%,79.998779%,100%);fill-opacity:1;stroke-width:1;stroke-linecap:butt;stroke-linejoin:miter;stroke:rgb(0%,0%,0%);stroke-opacity:1;stroke-miterlimit:4;" d="M 155.000681 144.999546 L 185.000215 144.999546 L 185.000215 174.99908 L 155.000681 174.99908 Z " transform="matrix(1.783621,0,0,1.783621,-2.532854,-5.350865)"/>
<path style="fill-rule:nonzero;fill:rgb(59.999084%,79.998779%,100%);fill-opacity:1;stroke-width:1;stroke-linecap:butt;stroke-linejoin:miter;stroke:rgb(0%,0%,0%);stroke-opacity:1;stroke-miterlimit:4;" d="M 155.000681 179.999002 L 185.000215 179.999002 L 185.000215 210.000726 L 155.000681 210.000726 Z " transform="matrix(1.783621,0,0,1.783621,-2.532854,-5.350865)"/>
<path style="fill-rule:nonzero;fill:rgb(59.999084%,79.998779%,100%);fill-opacity:1;stroke-width:1;stroke-linecap:butt;stroke-linejoin:miter;stroke:rgb(0%,0%,0%);stroke-opacity:1;stroke-miterlimit:4;" d="M 155.000681 215.000649 L 185.000215 215.000649 L 185.000215 245.000182 L 155.000681 245.000182 Z " transform="matrix(1.783621,0,0,1.783621,-2.532854,-5.350865)"/>
<path style="fill-rule:nonzero;fill:rgb(59.999084%,79.998779%,100%);fill-opacity:1;stroke-width:1;stroke-linecap:butt;stroke-linejoin:miter;stroke:rgb(0%,0%,0%);stroke-opacity:1;stroke-miterlimit:4;" d="M 155.000681 250.000105 L 185.000215 250.000105 L 185.000215 279.999639 L 155.000681 279.999639 Z " transform="matrix(1.783621,0,0,1.783621,-2.532854,-5.350865)"/>
<path style="fill-rule:nonzero;fill:rgb(59.999084%,79.998779%,100%);fill-opacity:1;stroke-width:1;stroke-linecap:butt;stroke-linejoin:miter;stroke:rgb(0%,0%,0%);stroke-opacity:1;stroke-miterlimit:4;" d="M 190.000138 144.999546 L 219.999671 144.999546 L 219.999671 174.99908 L 190.000138 174.99908 Z " transform="matrix(1.783621,0,0,1.783621,-2.532854,-5.350865)"/>
<path style="fill-rule:nonzero;fill:rgb(59.999084%,79.998779%,100%);fill-opacity:1;stroke-width:1;stroke-linecap:butt;stroke-linejoin:miter;stroke:rgb(0%,0%,0%);stroke-opacity:1;stroke-miterlimit:4;" d="M 190.000138 179.999002 L 219.999671 179.999002 L 219.999671 210.000726 L 190.000138 210.000726 Z " transform="matrix(1.783621,0,0,1.783621,-2.532854,-5.350865)"/>
<path style="fill-rule:nonzero;fill:rgb(59.999084%,79.998779%,100%);fill-opacity:1;stroke-width:1;stroke-linecap:butt;stroke-linejoin:miter;stroke:rgb(0%,0%,0%);stroke-opacity:1;stroke-miterlimit:4;" d="M 190.000138 215.000649 L 219.999671 215.000649 L 219.999671 245.000182 L 190.000138 245.000182 Z " transform="matrix(1.783621,0,0,1.783621,-2.532854,-5.350865)"/>
<path style="fill-rule:nonzero;fill:rgb(59.999084%,79.998779%,100%);fill-opacity:1;stroke-width:1;stroke-linecap:butt;stroke-linejoin:miter;stroke:rgb(0%,0%,0%);stroke-opacity:1;stroke-miterlimit:4;" d="M 190.000138 250.000105 L 219.999671 250.000105 L 219.999671 279.999639 L 190.000138 279.999639 Z " transform="matrix(1.783621,0,0,1.783621,-2.532854,-5.350865)"/>
<path style="fill-rule:nonzero;fill:rgb(59.999084%,79.998779%,100%);fill-opacity:1;stroke-width:1;stroke-linecap:butt;stroke-linejoin:miter;stroke:rgb(0%,0%,0%);stroke-opacity:1;stroke-miterlimit:4;" d="M 224.999594 144.999546 L 254.999128 144.999546 L 254.999128 174.99908 L 224.999594 174.99908 Z " transform="matrix(1.783621,0,0,1.783621,-2.532854,-5.350865)"/>
<path style="fill-rule:nonzero;fill:rgb(59.999084%,79.998779%,100%);fill-opacity:1;stroke-width:1;stroke-linecap:butt;stroke-linejoin:miter;stroke:rgb(0%,0%,0%);stroke-opacity:1;stroke-miterlimit:4;" d="M 224.999594 179.999002 L 254.999128 179.999002 L 254.999128 210.000726 L 224.999594 210.000726 Z " transform="matrix(1.783621,0,0,1.783621,-2.532854,-5.350865)"/>
<path style="fill-rule:nonzero;fill:rgb(59.999084%,79.998779%,100%);fill-opacity:1;stroke-width:1;stroke-linecap:butt;stroke-linejoin:miter;stroke:rgb(0%,0%,0%);stroke-opacity:1;stroke-miterlimit:4;" d="M 224.999594 215.000649 L 254.999128 215.000649 L 254.999128 245.000182 L 224.999594 245.000182 Z " transform="matrix(1.783621,0,0,1.783621,-2.532854,-5.350865)"/>
<path style="fill-rule:nonzero;fill:rgb(59.999084%,79.998779%,100%);fill-opacity:1;stroke-width:1;stroke-linecap:butt;stroke-linejoin:miter;stroke:rgb(0%,0%,0%);stroke-opacity:1;stroke-miterlimit:4;" d="M 224.999594 250.000105 L 254.999128 250.000105 L 254.999128 279.999639 L 224.999594 279.999639 Z " transform="matrix(1.783621,0,0,1.783621,-2.532854,-5.350865)"/>
<path style="fill-rule:nonzero;fill:rgb(59.999084%,79.998779%,100%);fill-opacity:1;stroke-width:1;stroke-linecap:butt;stroke-linejoin:miter;stroke:rgb(0%,0%,0%);stroke-opacity:1;stroke-miterlimit:4;" d="M 259.99905 144.999546 L 290.000774 144.999546 L 290.000774 174.99908 L 259.99905 174.99908 Z " transform="matrix(1.783621,0,0,1.783621,-2.532854,-5.350865)"/>
<path style="fill-rule:nonzero;fill:rgb(59.999084%,79.998779%,100%);fill-opacity:1;stroke-width:1;stroke-linecap:butt;stroke-linejoin:miter;stroke:rgb(0%,0%,0%);stroke-opacity:1;stroke-miterlimit:4;" d="M 259.99905 179.999002 L 290.000774 179.999002 L 290.000774 210.000726 L 259.99905 210.000726 Z " transform="matrix(1.783621,0,0,1.783621,-2.532854,-5.350865)"/>
<path style="fill-rule:nonzero;fill:rgb(59.999084%,79.998779%,100%);fill-opacity:1;stroke-width:1;stroke-linecap:butt;stroke-linejoin:miter;stroke:rgb(0%,0%,0%);stroke-opacity:1;stroke-miterlimit:4;" d="M 259.99905 215.000649 L 290.000774 215.000649 L 290.000774 245.000182 L 259.99905 245.000182 Z " transform="matrix(1.783621,0,0,1.783621,-2.532854,-5.350865)"/>
<path style="fill-rule:nonzero;fill:rgb(59.999084%,79.998779%,100%);fill-opacity:1;stroke-width:1;stroke-linecap:butt;stroke-linejoin:miter;stroke:rgb(0%,0%,0%);stroke-opacity:1;stroke-miterlimit:4;" d="M 259.99905 250.000105 L 290.000774 250.000105 L 290.000774 279.999639 L 259.99905 279.999639 Z " transform="matrix(1.783621,0,0,1.783621,-2.532854,-5.350865)"/>
<path style="fill-rule:nonzero;fill:rgb(59.999084%,79.998779%,100%);fill-opacity:1;stroke-width:1;stroke-linecap:butt;stroke-linejoin:miter;stroke:rgb(0%,0%,0%);stroke-opacity:1;stroke-miterlimit:4;" d="M 295.000696 144.999546 L 325.00023 144.999546 L 325.00023 174.99908 L 295.000696 174.99908 Z " transform="matrix(1.783621,0,0,1.783621,-2.532854,-5.350865)"/>
<path style="fill-rule:nonzero;fill:rgb(59.999084%,79.998779%,100%);fill-opacity:1;stroke-width:1;stroke-linecap:butt;stroke-linejoin:miter;stroke:rgb(0%,0%,0%);stroke-opacity:1;stroke-miterlimit:4;" d="M 295.000696 179.999002 L 325.00023 179.999002 L 325.00023 210.000726 L 295.000696 210.000726 Z " transform="matrix(1.783621,0,0,1.783621,-2.532854,-5.350865)"/>
<path style="fill-rule:nonzero;fill:rgb(59.999084%,79.998779%,100%);fill-opacity:1;stroke-width:1;stroke-linecap:butt;stroke-linejoin:miter;stroke:rgb(0%,0%,0%);stroke-opacity:1;stroke-miterlimit:4;" d="M 295.000696 215.000649 L 325.00023 215.000649 L 325.00023 245.000182 L 295.000696 245.000182 Z " transform="matrix(1.783621,0,0,1.783621,-2.532854,-5.350865)"/>
<path style="fill-rule:nonzero;fill:rgb(59.999084%,79.998779%,100%);fill-opacity:1;stroke-width:1;stroke-linecap:butt;stroke-linejoin:miter;stroke:rgb(0%,0%,0%);stroke-opacity:1;stroke-miterlimit:4;" d="M 295.000696 250.000105 L 325.00023 250.000105 L 325.00023 279.999639 L 295.000696 279.999639 Z " transform="matrix(1.783621,0,0,1.783621,-2.532854,-5.350865)"/>
<path style="fill-rule:nonzero;fill:rgb(59.999084%,79.998779%,100%);fill-opacity:1;stroke-width:1;stroke-linecap:butt;stroke-linejoin:miter;stroke:rgb(0%,0%,0%);stroke-opacity:1;stroke-miterlimit:4;" d="M 330.000152 144.999546 L 359.999686 144.999546 L 359.999686 174.99908 L 330.000152 174.99908 Z " transform="matrix(1.783621,0,0,1.783621,-2.532854,-5.350865)"/>
<path style="fill-rule:nonzero;fill:rgb(59.999084%,79.998779%,100%);fill-opacity:1;stroke-width:1;stroke-linecap:butt;stroke-linejoin:miter;stroke:rgb(0%,0%,0%);stroke-opacity:1;stroke-miterlimit:4;" d="M 330.000152 179.999002 L 359.999686 179.999002 L 359.999686 210.000726 L 330.000152 210.000726 Z " transform="matrix(1.783621,0,0,1.783621,-2.532854,-5.350865)"/>
<path style="fill-rule:nonzero;fill:rgb(59.999084%,79.998779%,100%);fill-opacity:1;stroke-width:1;stroke-linecap:butt;stroke-linejoin:miter;stroke:rgb(0%,0%,0%);stroke-opacity:1;stroke-miterlimit:4;" d="M 330.000152 215.000649 L 359.999686 215.000649 L 359.999686 245.000182 L 330.000152 245.000182 Z " transform="matrix(1.783621,0,0,1.783621,-2.532854,-5.350865)"/>
<path style="fill-rule:nonzero;fill:rgb(59.999084%,79.998779%,100%);fill-opacity:1;stroke-width:1;stroke-linecap:butt;stroke-linejoin:miter;stroke:rgb(0%,0%,0%);stroke-opacity:1;stroke-miterlimit:4;" d="M 364.999609 144.999546 L 394.999143 144.999546 L 394.999143 174.99908 L 364.999609 174.99908 Z " transform="matrix(1.783621,0,0,1.783621,-2.532854,-5.350865)"/>
<path style="fill-rule:nonzero;fill:rgb(59.999084%,79.998779%,100%);fill-opacity:1;stroke-width:1;stroke-linecap:butt;stroke-linejoin:miter;stroke:rgb(0%,0%,0%);stroke-opacity:1;stroke-miterlimit:4;" d="M 364.999609 179.999002 L 394.999143 179.999002 L 394.999143 210.000726 L 364.999609 210.000726 Z " transform="matrix(1.783621,0,0,1.783621,-2.532854,-5.350865)"/>
<path style="fill-rule:nonzero;fill:rgb(59.999084%,79.998779%,100%);fill-opacity:1;stroke-width:1;stroke-linecap:butt;stroke-linejoin:miter;stroke:rgb(0%,0%,0%);stroke-opacity:1;stroke-miterlimit:4;" d="M 364.999609 215.000649 L 394.999143 215.000649 L 394.999143 245.000182 L 364.999609 245.000182 Z " transform="matrix(1.783621,0,0,1.783621,-2.532854,-5.350865)"/>
<path style="fill-rule:nonzero;fill:rgb(59.999084%,79.998779%,100%);fill-opacity:1;stroke-width:1;stroke-linecap:butt;stroke-linejoin:miter;stroke:rgb(0%,0%,0%);stroke-opacity:1;stroke-miterlimit:4;" d="M 399.999065 144.999546 L 430.000789 144.999546 L 430.000789 174.99908 L 399.999065 174.99908 Z " transform="matrix(1.783621,0,0,1.783621,-2.532854,-5.350865)"/>
<path style="fill-rule:nonzero;fill:rgb(59.999084%,79.998779%,100%);fill-opacity:1;stroke-width:1;stroke-linecap:butt;stroke-linejoin:miter;stroke:rgb(0%,0%,0%);stroke-opacity:1;stroke-miterlimit:4;" d="M 399.999065 179.999002 L 430.000789 179.999002 L 430.000789 210.000726 L 399.999065 210.000726 Z " transform="matrix(1.783621,0,0,1.783621,-2.532854,-5.350865)"/>
<path style="fill-rule:nonzero;fill:rgb(59.999084%,79.998779%,100%);fill-opacity:1;stroke-width:1;stroke-linecap:butt;stroke-linejoin:miter;stroke:rgb(0%,0%,0%);stroke-opacity:1;stroke-miterlimit:4;" d="M 399.999065 215.000649 L 430.000789 215.000649 L 430.000789 245.000182 L 399.999065 245.000182 Z " transform="matrix(1.783621,0,0,1.783621,-2.532854,-5.350865)"/>
<path style="fill-rule:nonzero;fill:rgb(59.999084%,79.998779%,100%);fill-opacity:1;stroke-width:1;stroke-linecap:butt;stroke-linejoin:miter;stroke:rgb(0%,0%,0%);stroke-opacity:1;stroke-miterlimit:4;" d="M 119.999035 250.000105 L 150.000759 250.000105 L 150.000759 279.999639 L 119.999035 279.999639 Z " transform="matrix(1.783621,0,0,1.783621,-2.532854,-5.350865)"/>
<path style="fill-rule:nonzero;fill:rgb(59.999084%,79.998779%,100%);fill-opacity:1;stroke-width:1;stroke-linecap:butt;stroke-linejoin:miter;stroke:rgb(0%,0%,0%);stroke-opacity:1;stroke-miterlimit:4;" d="M 119.999035 215.000649 L 150.000759 215.000649 L 150.000759 245.000182 L 119.999035 245.000182 Z " transform="matrix(1.783621,0,0,1.783621,-2.532854,-5.350865)"/>
<path style="fill-rule:nonzero;fill:rgb(100%,59.999084%,59.999084%);fill-opacity:1;stroke-width:1;stroke-linecap:butt;stroke-linejoin:miter;stroke:rgb(0%,0%,0%);stroke-opacity:1;stroke-miterlimit:4;" d="M 40.000278 39.998987 L 69.999812 39.998987 L 69.999812 70.000711 L 40.000278 70.000711 Z " transform="matrix(1.783621,0,0,1.783621,-2.532854,-5.350865)"/>
<path style="fill-rule:nonzero;fill:rgb(100%,59.999084%,59.999084%);fill-opacity:1;stroke-width:1;stroke-linecap:butt;stroke-linejoin:miter;stroke:rgb(0%,0%,0%);stroke-opacity:1;stroke-miterlimit:4;" d="M 40.000278 75.000634 L 69.999812 75.000634 L 69.999812 105.000168 L 40.000278 105.000168 Z " transform="matrix(1.783621,0,0,1.783621,-2.532854,-5.350865)"/>
<path style="fill-rule:nonzero;fill:rgb(100%,59.999084%,59.999084%);fill-opacity:1;stroke-width:1;stroke-linecap:butt;stroke-linejoin:miter;stroke:rgb(0%,0%,0%);stroke-opacity:1;stroke-miterlimit:4;" d="M 40.000278 110.00009 L 69.999812 110.00009 L 69.999812 139.999624 L 40.000278 139.999624 Z " transform="matrix(1.783621,0,0,1.783621,-2.532854,-5.350865)"/>
<path style="fill-rule:nonzero;fill:rgb(100%,59.999084%,59.999084%);fill-opacity:1;stroke-width:1;stroke-linecap:butt;stroke-linejoin:miter;stroke:rgb(0%,0%,0%);stroke-opacity:1;stroke-miterlimit:4;" d="M 40.000278 144.999546 L 69.999812 144.999546 L 69.999812 174.99908 L 40.000278 174.99908 Z " transform="matrix(1.783621,0,0,1.783621,-2.532854,-5.350865)"/>
<path style="fill-rule:nonzero;fill:rgb(100%,59.999084%,59.999084%);fill-opacity:1;stroke-width:1;stroke-linecap:butt;stroke-linejoin:miter;stroke:rgb(0%,0%,0%);stroke-opacity:1;stroke-miterlimit:4;" d="M 40.000278 179.999002 L 69.999812 179.999002 L 69.999812 210.000726 L 40.000278 210.000726 Z " transform="matrix(1.783621,0,0,1.783621,-2.532854,-5.350865)"/>
<path style="fill-rule:nonzero;fill:rgb(100%,59.999084%,59.999084%);fill-opacity:1;stroke-width:1;stroke-linecap:butt;stroke-linejoin:miter;stroke:rgb(0%,0%,0%);stroke-opacity:1;stroke-miterlimit:4;" d="M 40.000278 215.000649 L 69.999812 215.000649 L 69.999812 245.000182 L 40.000278 245.000182 Z " transform="matrix(1.783621,0,0,1.783621,-2.532854,-5.350865)"/>
<path style="fill-rule:nonzero;fill:rgb(100%,59.999084%,59.999084%);fill-opacity:1;stroke-width:1;stroke-linecap:butt;stroke-linejoin:miter;stroke:rgb(0%,0%,0%);stroke-opacity:1;stroke-miterlimit:4;" d="M 40.000278 250.000105 L 69.999812 250.000105 L 69.999812 279.999639 L 40.000278 279.999639 Z " transform="matrix(1.783621,0,0,1.783621,-2.532854,-5.350865)"/>
<path style="fill-rule:nonzero;fill:rgb(100%,59.999084%,59.999084%);fill-opacity:1;stroke-width:1;stroke-linecap:butt;stroke-linejoin:miter;stroke:rgb(0%,0%,0%);stroke-opacity:1;stroke-miterlimit:4;" d="M 74.999734 75.000634 L 104.999268 75.000634 L 104.999268 105.000168 L 74.999734 105.000168 Z " transform="matrix(1.783621,0,0,1.783621,-2.532854,-5.350865)"/>
<path style="fill-rule:nonzero;fill:rgb(100%,59.999084%,59.999084%);fill-opacity:1;stroke-width:1;stroke-linecap:butt;stroke-linejoin:miter;stroke:rgb(0%,0%,0%);stroke-opacity:1;stroke-miterlimit:4;" d="M 74.999734 110.00009 L 104.999268 110.00009 L 104.999268 139.999624 L 74.999734 139.999624 Z " transform="matrix(1.783621,0,0,1.783621,-2.532854,-5.350865)"/>
<path style="fill-rule:nonzero;fill:rgb(100%,59.999084%,59.999084%);fill-opacity:1;stroke-width:1;stroke-linecap:butt;stroke-linejoin:miter;stroke:rgb(0%,0%,0%);stroke-opacity:1;stroke-miterlimit:4;" d="M 74.999734 144.999546 L 104.999268 144.999546 L 104.999268 174.99908 L 74.999734 174.99908 Z " transform="matrix(1.783621,0,0,1.783621,-2.532854,-5.350865)"/>
<path style="fill-rule:nonzero;fill:rgb(100%,59.999084%,59.999084%);fill-opacity:1;stroke-width:1;stroke-linecap:butt;stroke-linejoin:miter;stroke:rgb(0%,0%,0%);stroke-opacity:1;stroke-miterlimit:4;" d="M 74.999734 179.999002 L 104.999268 179.999002 L 104.999268 210.000726 L 74.999734 210.000726 Z " transform="matrix(1.783621,0,0,1.783621,-2.532854,-5.350865)"/>
<path style="fill-rule:nonzero;fill:rgb(100%,59.999084%,59.999084%);fill-opacity:1;stroke-width:1;stroke-linecap:butt;stroke-linejoin:miter;stroke:rgb(0%,0%,0%);stroke-opacity:1;stroke-miterlimit:4;" d="M 74.999734 215.000649 L 104.999268 215.000649 L 104.999268 245.000182 L 74.999734 245.000182 Z " transform="matrix(1.783621,0,0,1.783621,-2.532854,-5.350865)"/>
<path style="fill-rule:nonzero;fill:rgb(100%,59.999084%,59.999084%);fill-opacity:1;stroke-width:1;stroke-linecap:butt;stroke-linejoin:miter;stroke:rgb(0%,0%,0%);stroke-opacity:1;stroke-miterlimit:4;" d="M 74.999734 250.000105 L 104.999268 250.000105 L 104.999268 279.999639 L 74.999734 279.999639 Z " transform="matrix(1.783621,0,0,1.783621,-2.532854,-5.350865)"/>
<path style="fill-rule:nonzero;fill:rgb(100%,59.999084%,59.999084%);fill-opacity:1;stroke-width:1;stroke-linecap:butt;stroke-linejoin:miter;stroke:rgb(0%,0%,0%);stroke-opacity:1;stroke-miterlimit:4;" d="M 644.999639 39.998987 L 674.999172 39.998987 L 674.999172 70.000711 L 644.999639 70.000711 Z " transform="matrix(1.783621,0,0,1.783621,-2.532854,-5.350865)"/>
<path style=" stroke:none;fill-rule:nonzero;fill:rgb(0%,0%,0%);fill-opacity:1;" d="M 73.644531 19.546875 L 73.644531 24.613281 L 65.496094 24.613281 L 65.496094 28.378906 L 73.644531 28.378906 L 73.644531 33.441406 L 85.667969 26.488281 Z M 31.550781 60.234375 L 26.46875 60.214844 L 33.425781 72.238281 L 40.363281 60.214844 L 35.296875 60.214844 L 35.296875 52.082031 L 31.550781 52.082031 Z "/>
</g>
</svg>
