<svg xmlns="http://www.w3.org/2000/svg" viewBox="0 0 118.783 118.783" xmlns:v="https://vecta.io/nano" width='21' height='21' fill='#babab6'><path d="M115.97 101.597L88.661 74.286a47.75 47.75 0 0 0 7.333-25.488c0-26.509-21.49-47.996-47.998-47.996S0 22.289 0 48.798s21.487 47.995 47.996 47.995c10.197 0 19.642-3.188 27.414-8.605l26.984 26.986c1.875 1.873 4.333 2.806 6.788 2.806a9.58 9.58 0 0 0 6.791-2.806c3.747-3.751 3.747-9.827-.003-13.577zM47.996 81.243c-17.917 0-32.443-14.525-32.443-32.443s14.526-32.444 32.443-32.444S80.439 30.882 80.439 48.8 65.914 81.243 47.996 81.243z"/></svg>